<svg width="553" height="271" viewBox="0 0 553 271" fill="none" xmlns="http://www.w3.org/2000/svg">
<rect x="1.26855" y="0.394531" width="124.975" height="124.975" rx="35.1177" fill="#FFF9F9" fill-opacity="0.8"/>
<rect x="6.68416" y="5.81111" width="114.144" height="114.144" rx="34.7011" stroke="#F8567A" stroke-width="0.833167"/>
<path d="M53.3691 77.3803V84.3789H51.7494V78.68H50.3497V77.3803H53.3691ZM57.8842 84.4989C57.3043 84.4989 56.7878 84.3556 56.3345 84.069C55.8813 83.7824 55.5247 83.3691 55.2647 82.8292C55.0115 82.2827 54.8848 81.6328 54.8848 80.8796C54.8848 80.1264 55.0115 79.4799 55.2647 78.94C55.5247 78.3934 55.8813 77.9768 56.3345 77.6902C56.7878 77.4036 57.3043 77.2603 57.8842 77.2603C58.4641 77.2603 58.9807 77.4036 59.4339 77.6902C59.8871 77.9768 60.2404 78.3934 60.4937 78.94C60.7536 79.4799 60.8836 80.1264 60.8836 80.8796C60.8836 81.6328 60.7536 82.2827 60.4937 82.8292C60.2404 83.3691 59.8871 83.7824 59.4339 84.069C58.9807 84.3556 58.4641 84.4989 57.8842 84.4989ZM57.8842 83.1292C58.3108 83.1292 58.6441 82.9459 58.884 82.5793C59.1306 82.2127 59.2539 81.6461 59.2539 80.8796C59.2539 80.1131 59.1306 79.5465 58.884 79.1799C58.6441 78.8133 58.3108 78.6301 57.8842 78.6301C57.4643 78.6301 57.131 78.8133 56.8844 79.1799C56.6445 79.5465 56.5245 80.1131 56.5245 80.8796C56.5245 81.6461 56.6445 82.2127 56.8844 82.5793C57.131 82.9459 57.4643 83.1292 57.8842 83.1292ZM64.9699 84.4989C64.39 84.4989 63.8735 84.3556 63.4202 84.069C62.967 83.7824 62.6104 83.3691 62.3504 82.8292C62.0971 82.2827 61.9705 81.6328 61.9705 80.8796C61.9705 80.1264 62.0971 79.4799 62.3504 78.94C62.6104 78.3934 62.967 77.9768 63.4202 77.6902C63.8735 77.4036 64.39 77.2603 64.9699 77.2603C65.5498 77.2603 66.0664 77.4036 66.5196 77.6902C66.9728 77.9768 67.3261 78.3934 67.5794 78.94C67.8393 79.4799 67.9693 80.1264 67.9693 80.8796C67.9693 81.6328 67.8393 82.2827 67.5794 82.8292C67.3261 83.3691 66.9728 83.7824 66.5196 84.069C66.0664 84.3556 65.5498 84.4989 64.9699 84.4989ZM64.9699 83.1292C65.3965 83.1292 65.7298 82.9459 65.9697 82.5793C66.2163 82.2127 66.3396 81.6461 66.3396 80.8796C66.3396 80.1131 66.2163 79.5465 65.9697 79.1799C65.7298 78.8133 65.3965 78.6301 64.9699 78.6301C64.55 78.6301 64.2167 78.8133 63.9701 79.1799C63.7302 79.5465 63.6102 80.1131 63.6102 80.8796C63.6102 81.6461 63.7302 82.2127 63.9701 82.5793C64.2167 82.9459 64.55 83.1292 64.9699 83.1292ZM70.6759 81.1595C70.1627 81.1595 69.7427 80.9862 69.4161 80.6397C69.0962 80.2864 68.9362 79.8165 68.9362 79.2299C68.9362 78.6434 69.0962 78.1768 69.4161 77.8302C69.7427 77.4769 70.1627 77.3003 70.6759 77.3003C71.1891 77.3003 71.6057 77.4769 71.9256 77.8302C72.2456 78.1768 72.4055 78.6434 72.4055 79.2299C72.4055 79.8165 72.2456 80.2864 71.9256 80.6397C71.6057 80.9862 71.1891 81.1595 70.6759 81.1595ZM74.8451 77.3803H76.0348L71.2558 84.3789H70.066L74.8451 77.3803ZM70.6759 80.3397C70.9025 80.3397 71.0791 80.2464 71.2058 80.0598C71.3391 79.8731 71.4057 79.5965 71.4057 79.2299C71.4057 78.8633 71.3391 78.5867 71.2058 78.4001C71.0791 78.2135 70.9025 78.1202 70.6759 78.1202C70.4559 78.1202 70.2793 78.2168 70.146 78.4101C70.0127 78.5967 69.946 78.87 69.946 79.2299C69.946 79.5899 70.0127 79.8665 70.146 80.0598C70.2793 80.2464 70.4559 80.3397 70.6759 80.3397ZM75.4249 84.4589C75.0917 84.4589 74.7917 84.3822 74.5251 84.2289C74.2652 84.069 74.0619 83.8423 73.9152 83.5491C73.7686 83.2558 73.6953 82.9159 73.6953 82.5293C73.6953 82.1427 73.7686 81.8028 73.9152 81.5095C74.0619 81.2162 74.2652 80.9929 74.5251 80.8396C74.7917 80.6796 75.0917 80.5997 75.4249 80.5997C75.9382 80.5997 76.3547 80.7763 76.6747 81.1296C77.0013 81.4762 77.1646 81.9427 77.1646 82.5293C77.1646 83.1158 77.0013 83.5857 76.6747 83.939C76.3547 84.2856 75.9382 84.4589 75.4249 84.4589ZM75.4249 83.6391C75.6516 83.6391 75.8282 83.5457 75.9548 83.3591C76.0881 83.1658 76.1548 82.8892 76.1548 82.5293C76.1548 82.1693 76.0881 81.8961 75.9548 81.7094C75.8282 81.5161 75.6516 81.4195 75.4249 81.4195C75.205 81.4195 75.0283 81.5128 74.895 81.6994C74.7617 81.8861 74.6951 82.1627 74.6951 82.5293C74.6951 82.8959 74.7617 83.1725 74.895 83.3591C75.0283 83.5457 75.205 83.6391 75.4249 83.6391ZM28.2231 89.7H25.9835V88.3803H32.0823V89.7H29.8428V95.3789H28.2231V89.7ZM37.5113 93.8792H34.262L33.6421 95.3789H31.9824L35.1018 88.3803H36.7015L39.8309 95.3789H38.1312L37.5113 93.8792ZM37.0014 92.6495L35.8916 89.97L34.7819 92.6495H37.0014ZM47.2756 88.3803V95.3789H45.9459L42.4566 91.1298V95.3789H40.8569V88.3803H42.1966L45.6759 92.6295V88.3803H47.2756ZM53.9605 91.7696H55.4402V94.6091C55.0602 94.8957 54.6203 95.1156 54.1204 95.2689C53.6205 95.4222 53.1173 95.4989 52.6107 95.4989C51.8842 95.4989 51.231 95.3456 50.6511 95.039C50.0712 94.7257 49.6147 94.2958 49.2814 93.7492C48.9548 93.196 48.7915 92.5728 48.7915 91.8796C48.7915 91.1864 48.9548 90.5665 49.2814 90.02C49.6147 89.4668 50.0746 89.0368 50.6611 88.7302C51.2477 88.417 51.9075 88.2603 52.6407 88.2603C53.2539 88.2603 53.8105 88.3636 54.3104 88.5703C54.8103 88.7769 55.2302 89.0768 55.5701 89.4701L54.5304 90.4299C54.0305 89.9033 53.4272 89.6401 52.7207 89.6401C52.2741 89.6401 51.8775 89.7334 51.5309 89.92C51.1844 90.1066 50.9144 90.3699 50.7211 90.7098C50.5278 91.0498 50.4312 91.4397 50.4312 91.8796C50.4312 92.3129 50.5278 92.6994 50.7211 93.0394C50.9144 93.3793 51.181 93.6459 51.521 93.8392C51.8675 94.0258 52.2608 94.1192 52.7007 94.1192C53.1673 94.1192 53.5872 94.0192 53.9605 93.8192V91.7696ZM57.2447 88.3803H58.8643V94.0592H62.3736V95.3789H57.2447V88.3803ZM68.9975 94.0792V95.3789H63.5785V88.3803H68.8675V89.68H65.1882V91.1997H68.4376V92.4595H65.1882V94.0792H68.9975ZM70.0809 91.9396H72.9104V93.1893H70.0809V91.9396ZM76.1671 89.68V91.5297H79.4065V92.8294H76.1671V95.3789H74.5475V88.3803H79.8364V89.68H76.1671ZM85.6919 95.3789L84.3422 93.4293H84.2622H82.8525V95.3789H81.2328V88.3803H84.2622C84.8821 88.3803 85.4187 88.4836 85.8719 88.6902C86.3318 88.8969 86.6851 89.1901 86.9317 89.5701C87.1783 89.95 87.3016 90.3999 87.3016 90.9198C87.3016 91.4397 87.175 91.8896 86.9217 92.2695C86.6751 92.6428 86.3218 92.9294 85.8619 93.1294L87.4316 95.3789H85.6919ZM85.662 90.9198C85.662 90.5265 85.5353 90.2266 85.282 90.02C85.0287 89.8067 84.6588 89.7 84.1722 89.7H82.8525V92.1396H84.1722C84.6588 92.1396 85.0287 92.0329 85.282 91.8196C85.5353 91.6063 85.662 91.3064 85.662 90.9198ZM94.3037 94.0792V95.3789H88.8848V88.3803H94.1738V89.68H90.4945V91.1997H93.7439V92.4595H90.4945V94.0792H94.3037ZM101.311 94.0792V95.3789H95.8924V88.3803H101.181V89.68H97.5021V91.1997H100.751V92.4595H97.5021V94.0792H101.311Z" fill="#5F5F5F"/>
<path d="M47.826 25.3906C47.826 25.3906 40.3886 34.9935 43.841 45.9361C46.9412 55.7622 52.2567 59.7819 58.9 62.0151C68.6027 65.2767 79.4319 58.9949 81.0493 49.0625C82.5464 39.8691 75.563 29.4452 66.8734 31.1969C61.1112 32.3585 56.2433 37.8965 56.6863 42.3629C56.6863 47.276 61.3784 52.2625 66.4315 51.2958C70.1589 50.5826 73.4681 47.9544 73.076 44.1495C72.721 40.7058 69.3069 37.0067 65.9885 37.8965C64.2114 38.3731 62.5814 39.6206 62.4448 41.4697C62.2901 43.5639 64.3869 45.8893 66.4315 45.4894" stroke="#F8567A" stroke-width="1.24975" stroke-linecap="round"/>
<rect x="284.544" y="1.22656" width="124.975" height="124.975" rx="35.1177" fill="#FFF9F9" fill-opacity="0.8"/>
<rect x="289.96" y="6.64315" width="114.144" height="114.144" rx="34.7011" stroke="#F8567A" stroke-width="0.833167"/>
<path d="M323.029 85.2109L321.679 83.2613H321.599H320.19V85.2109H318.57V78.2123H321.599C322.219 78.2123 322.756 78.3156 323.209 78.5223C323.669 78.7289 324.022 79.0222 324.269 79.4021C324.516 79.782 324.639 80.2319 324.639 80.7518C324.639 81.2717 324.512 81.7216 324.259 82.1016C324.012 82.4748 323.659 82.7614 323.199 82.9614L324.769 85.2109H323.029ZM322.999 80.7518C322.999 80.3586 322.873 80.0586 322.619 79.852C322.366 79.6387 321.996 79.5321 321.509 79.5321H320.19V81.9716H321.509C321.996 81.9716 322.366 81.8649 322.619 81.6516C322.873 81.4384 322.999 81.1384 322.999 80.7518ZM331.641 83.9112V85.2109H326.222V78.2123H331.511V79.5121H327.832V81.0318H331.081V82.2915H327.832V83.9112H331.641ZM336.259 78.2123C336.879 78.2123 337.415 78.3156 337.869 78.5223C338.329 78.7289 338.682 79.0222 338.928 79.4021C339.175 79.782 339.298 80.2319 339.298 80.7518C339.298 81.2651 339.175 81.715 338.928 82.1016C338.682 82.4815 338.329 82.7748 337.869 82.9814C337.415 83.1813 336.879 83.2813 336.259 83.2813H334.849V85.2109H333.23V78.2123H336.259ZM336.169 81.9616C336.656 81.9616 337.026 81.8583 337.279 81.6516C337.532 81.4384 337.659 81.1384 337.659 80.7518C337.659 80.3586 337.532 80.0586 337.279 79.852C337.026 79.6387 336.656 79.5321 336.169 79.5321H334.849V81.9616H336.169ZM340.755 78.2123H342.374V83.8912H345.884V85.2109H340.755V78.2123ZM351.756 83.7112H348.507L347.887 85.2109H346.227L349.347 78.2123H350.946L354.076 85.2109H352.376L351.756 83.7112ZM351.246 82.4815L350.137 79.802L349.027 82.4815H351.246ZM358.354 85.3309C357.64 85.3309 356.994 85.1776 356.414 84.871C355.841 84.5577 355.387 84.1278 355.054 83.5813C354.728 83.028 354.564 82.4048 354.564 81.7116C354.564 81.0184 354.728 80.3986 355.054 79.852C355.387 79.2988 355.841 78.8689 356.414 78.5623C356.994 78.249 357.644 78.0924 358.364 78.0924C358.97 78.0924 359.517 78.199 360.003 78.4123C360.496 78.6256 360.91 78.9322 361.243 79.3321L360.203 80.2919C359.73 79.7454 359.143 79.4721 358.444 79.4721C358.01 79.4721 357.624 79.5687 357.284 79.762C356.944 79.9487 356.677 80.2119 356.484 80.5519C356.297 80.8918 356.204 81.2784 356.204 81.7116C356.204 82.1449 356.297 82.5315 356.484 82.8714C356.677 83.2113 356.944 83.4779 357.284 83.6712C357.624 83.8579 358.01 83.9512 358.444 83.9512C359.143 83.9512 359.73 83.6746 360.203 83.1214L361.243 84.0812C360.91 84.4877 360.496 84.7977 360.003 85.011C359.51 85.2243 358.96 85.3309 358.354 85.3309ZM368.056 83.9112V85.2109H362.637V78.2123H367.926V79.5121H364.246V81.0318H367.496V82.2915H364.246V83.9112H368.056ZM371.944 85.3309C371.391 85.3309 370.854 85.2576 370.334 85.111C369.821 84.9577 369.408 84.761 369.094 84.5211L369.644 83.3013C369.944 83.5213 370.301 83.6979 370.714 83.8312C371.127 83.9645 371.541 84.0312 371.954 84.0312C372.414 84.0312 372.754 83.9645 372.974 83.8312C373.194 83.6912 373.304 83.5079 373.304 83.2813C373.304 83.1147 373.237 82.978 373.104 82.8714C372.977 82.7581 372.81 82.6681 372.604 82.6015C372.404 82.5348 372.13 82.4615 371.784 82.3815C371.251 82.2549 370.814 82.1282 370.474 82.0016C370.134 81.8749 369.841 81.6716 369.594 81.3917C369.354 81.1118 369.234 80.7385 369.234 80.2719C369.234 79.8653 369.344 79.4987 369.564 79.1721C369.784 78.8389 370.114 78.5756 370.554 78.3823C371.001 78.189 371.544 78.0924 372.184 78.0924C372.63 78.0924 373.067 78.1457 373.493 78.2523C373.92 78.359 374.293 78.5123 374.613 78.7122L374.113 79.942C373.467 79.5754 372.82 79.3921 372.174 79.3921C371.72 79.3921 371.384 79.4654 371.164 79.6121C370.951 79.7587 370.844 79.952 370.844 80.1919C370.844 80.4319 370.967 80.6119 371.214 80.7318C371.467 80.8451 371.85 80.9585 372.364 81.0718C372.897 81.1984 373.334 81.325 373.673 81.4517C374.013 81.5783 374.303 81.7783 374.543 82.0516C374.79 82.3248 374.913 82.6948 374.913 83.1613C374.913 83.5613 374.8 83.9279 374.573 84.2611C374.353 84.5877 374.02 84.8477 373.573 85.041C373.127 85.2343 372.584 85.3309 371.944 85.3309ZM312.072 96.3309C311.519 96.3309 310.982 96.2576 310.462 96.111C309.949 95.9577 309.536 95.761 309.222 95.5211L309.772 94.3013C310.072 94.5213 310.429 94.6979 310.842 94.8312C311.255 94.9645 311.668 95.0312 312.082 95.0312C312.542 95.0312 312.882 94.9645 313.102 94.8312C313.321 94.6912 313.431 94.5079 313.431 94.2813C313.431 94.1147 313.365 93.978 313.232 93.8714C313.105 93.7581 312.938 93.6681 312.732 93.6015C312.532 93.5348 312.258 93.4615 311.912 93.3815C311.379 93.2549 310.942 93.1282 310.602 93.0016C310.262 92.8749 309.969 92.6716 309.722 92.3917C309.482 92.1118 309.362 91.7385 309.362 91.2719C309.362 90.8653 309.472 90.4987 309.692 90.1721C309.912 89.8389 310.242 89.5756 310.682 89.3823C311.129 89.189 311.672 89.0924 312.312 89.0924C312.758 89.0924 313.195 89.1457 313.621 89.2523C314.048 89.359 314.421 89.5123 314.741 89.7122L314.241 90.942C313.595 90.5754 312.948 90.3921 312.302 90.3921C311.848 90.3921 311.512 90.4654 311.292 90.6121C311.079 90.7587 310.972 90.952 310.972 91.1919C310.972 91.4319 311.095 91.6119 311.342 91.7318C311.595 91.8451 311.978 91.9585 312.492 92.0718C313.025 92.1984 313.461 92.325 313.801 92.4517C314.141 92.5783 314.431 92.7783 314.671 93.0516C314.918 93.3248 315.041 93.6948 315.041 94.1613C315.041 94.5613 314.928 94.9279 314.701 95.2611C314.481 95.5877 314.148 95.8477 313.701 96.041C313.255 96.2343 312.712 96.3309 312.072 96.3309ZM321.057 94.7112H317.808L317.188 96.2109H315.528L318.647 89.2123H320.247L323.376 96.2109H321.677L321.057 94.7112ZM320.547 93.4815L319.437 90.802L318.327 93.4815H320.547ZM324.402 89.2123H326.022V94.8912H329.531V96.2109H324.402V89.2123ZM334.009 96.3309C333.282 96.3309 332.625 96.1743 332.039 95.861C331.459 95.5477 331.002 95.1178 330.669 94.5713C330.343 94.018 330.179 93.3982 330.179 92.7116C330.179 92.0251 330.343 91.4086 330.669 90.862C331.002 90.3088 331.459 89.8755 332.039 89.5623C332.625 89.249 333.282 89.0924 334.009 89.0924C334.735 89.0924 335.388 89.249 335.968 89.5623C336.548 89.8755 337.005 90.3088 337.338 90.862C337.671 91.4086 337.838 92.0251 337.838 92.7116C337.838 93.3982 337.671 94.018 337.338 94.5713C337.005 95.1178 336.548 95.5477 335.968 95.861C335.388 96.1743 334.735 96.3309 334.009 96.3309ZM334.009 94.9512C334.422 94.9512 334.795 94.8579 335.128 94.6712C335.462 94.4779 335.722 94.2113 335.908 93.8714C336.101 93.5315 336.198 93.1449 336.198 92.7116C336.198 92.2784 336.101 91.8918 335.908 91.5519C335.722 91.2119 335.462 90.9487 335.128 90.762C334.795 90.5687 334.422 90.4721 334.009 90.4721C333.595 90.4721 333.222 90.5687 332.889 90.762C332.555 90.9487 332.292 91.2119 332.099 91.5519C331.912 91.8918 331.819 92.2784 331.819 92.7116C331.819 93.1449 331.912 93.5315 332.099 93.8714C332.292 94.2113 332.555 94.4779 332.889 94.6712C333.222 94.8579 333.595 94.9512 334.009 94.9512ZM345.774 89.2123V96.2109H344.444L340.955 91.9618V96.2109H339.355V89.2123H340.695L344.174 93.4615V89.2123H345.774ZM357.59 89.2123L354.56 96.2109H352.96L349.941 89.2123H351.691L353.82 94.2113L355.98 89.2123H357.59ZM358.474 89.2123H360.093V96.2109H358.474V89.2123ZM364.354 96.3309C363.801 96.3309 363.264 96.2576 362.744 96.111C362.231 95.9577 361.818 95.761 361.504 95.5211L362.054 94.3013C362.354 94.5213 362.711 94.6979 363.124 94.8312C363.537 94.9645 363.951 95.0312 364.364 95.0312C364.824 95.0312 365.164 94.9645 365.384 94.8312C365.604 94.6912 365.714 94.5079 365.714 94.2813C365.714 94.1147 365.647 93.978 365.514 93.8714C365.387 93.7581 365.22 93.6681 365.014 93.6015C364.814 93.5348 364.541 93.4615 364.194 93.3815C363.661 93.2549 363.224 93.1282 362.884 93.0016C362.544 92.8749 362.251 92.6716 362.004 92.3917C361.764 92.1118 361.644 91.7385 361.644 91.2719C361.644 90.8653 361.754 90.4987 361.974 90.1721C362.194 89.8389 362.524 89.5756 362.964 89.3823C363.411 89.189 363.954 89.0924 364.594 89.0924C365.04 89.0924 365.477 89.1457 365.904 89.2523C366.33 89.359 366.703 89.5123 367.023 89.7122L366.523 90.942C365.877 90.5754 365.23 90.3921 364.584 90.3921C364.131 90.3921 363.794 90.4654 363.574 90.6121C363.361 90.7587 363.254 90.952 363.254 91.1919C363.254 91.4319 363.377 91.6119 363.624 91.7318C363.877 91.8451 364.261 91.9585 364.774 92.0718C365.307 92.1984 365.744 92.325 366.084 92.4517C366.423 92.5783 366.713 92.7783 366.953 93.0516C367.2 93.3248 367.323 93.6948 367.323 94.1613C367.323 94.5613 367.21 94.9279 366.983 95.2611C366.763 95.5877 366.43 95.8477 365.984 96.041C365.537 96.2343 364.994 96.3309 364.354 96.3309ZM368.73 89.2123H370.35V96.2109H368.73V89.2123ZM373.76 90.5321H371.521V89.2123H377.619V90.5321H375.38V96.2109H373.76V90.5321ZM381.042 96.3309C380.488 96.3309 379.952 96.2576 379.432 96.111C378.919 95.9577 378.505 95.761 378.192 95.5211L378.742 94.3013C379.042 94.5213 379.399 94.6979 379.812 94.8312C380.225 94.9645 380.638 95.0312 381.052 95.0312C381.511 95.0312 381.851 94.9645 382.071 94.8312C382.291 94.6912 382.401 94.5079 382.401 94.2813C382.401 94.1147 382.335 93.978 382.201 93.8714C382.075 93.7581 381.908 93.6681 381.701 93.6015C381.501 93.5348 381.228 93.4615 380.882 93.3815C380.348 93.2549 379.912 93.1282 379.572 93.0016C379.232 92.8749 378.939 92.6716 378.692 92.3917C378.452 92.1118 378.332 91.7385 378.332 91.2719C378.332 90.8653 378.442 90.4987 378.662 90.1721C378.882 89.8389 379.212 89.5756 379.652 89.3823C380.098 89.189 380.642 89.0924 381.282 89.0924C381.728 89.0924 382.165 89.1457 382.591 89.2523C383.018 89.359 383.391 89.5123 383.711 89.7122L383.211 90.942C382.565 90.5754 381.918 90.3921 381.272 90.3921C380.818 90.3921 380.482 90.4654 380.262 90.6121C380.048 90.7587 379.942 90.952 379.942 91.1919C379.942 91.4319 380.065 91.6119 380.312 91.7318C380.565 91.8451 380.948 91.9585 381.461 92.0718C381.995 92.1984 382.431 92.325 382.771 92.4517C383.111 92.5783 383.401 92.7783 383.641 93.0516C383.888 93.3248 384.011 93.6948 384.011 94.1613C384.011 94.5613 383.898 94.9279 383.671 95.2611C383.451 95.5877 383.118 95.8477 382.671 96.041C382.225 96.2343 381.681 96.3309 381.042 96.3309Z" fill="#5F5F5F"/>
<circle cx="348.241" cy="42.8519" r="7.4692" stroke="#F8567A" stroke-width="1.24975"/>
<path d="M351.384 44.3815C351.384 44.9958 351.15 45.5168 350.684 45.9445C350.225 46.3722 349.556 46.621 348.678 46.691V48.0091H347.931V46.691C347.363 46.6599 346.823 46.5549 346.31 46.3761C345.804 46.1895 345.4 45.9562 345.097 45.6762L345.528 44.7664C345.808 45.023 346.162 45.2369 346.59 45.4079C347.017 45.5712 347.465 45.6685 347.931 45.6996V42.9934C347.387 42.8612 346.932 42.7174 346.566 42.5618C346.209 42.4063 345.905 42.1769 345.657 41.8737C345.415 41.5704 345.295 41.1738 345.295 40.6839C345.295 40.0696 345.517 39.5486 345.96 39.1209C346.411 38.6932 347.068 38.4443 347.931 38.3744V37.0446H348.678V38.3627C349.121 38.3782 349.549 38.4482 349.961 38.5726C350.381 38.6971 350.742 38.8643 351.045 39.0742L350.661 40.0074C350.031 39.6108 349.37 39.393 348.678 39.3542V42.0719C349.245 42.2119 349.712 42.3597 350.077 42.5152C350.443 42.6629 350.75 42.8885 350.999 43.1917C351.255 43.4872 351.384 43.8838 351.384 44.3815ZM346.438 40.6372C346.438 40.9716 346.566 41.2321 346.823 41.4187C347.08 41.6054 347.449 41.7609 347.931 41.8853V39.3658C347.433 39.428 347.06 39.5758 346.811 39.8091C346.562 40.0346 346.438 40.3106 346.438 40.6372ZM348.678 45.6879C349.199 45.6412 349.587 45.509 349.844 45.2913C350.108 45.0658 350.241 44.7858 350.241 44.4515C350.241 44.1093 350.105 43.8488 349.832 43.67C349.568 43.4833 349.183 43.32 348.678 43.1801V45.6879Z" fill="#F8567A"/>
<line x1="348.44" y1="26.0116" x2="348.44" y2="32.4299" stroke="#F8567A" stroke-width="1.24975" stroke-linecap="round"/>
<line x1="352.7" y1="29.4178" x2="352.7" y2="32.4281" stroke="#F8567A" stroke-width="1.24975" stroke-linecap="round"/>
<line x1="343.328" y1="29.4178" x2="343.328" y2="32.4281" stroke="#F8567A" stroke-width="1.24975" stroke-linecap="round"/>
<path d="M337.165 53.9305C337.875 53.3625 339.721 52.3117 341.425 52.6525C343.129 52.9933 344.975 53.9305 345.685 54.3565C346.395 54.7825 350.939 53.7885 352.075 54.3565C353.211 54.9245 355.398 56.4013 355.057 57.7645" stroke="#F8567A" stroke-width="1.24975" stroke-linecap="round"/>
<path d="M346.963 57.7651H355.057C355.199 57.3391 355.739 56.3166 356.761 55.635C358.039 54.783 360.595 53.931 361.447 53.931C362.129 53.931 363.151 54.499 363.577 54.783C363.577 54.783 352.785 62.7351 351.649 62.8771C350.513 63.0191 347.986 63.2179 346.963 62.8771C345.685 62.4511 342.277 60.7471 340.147 60.7471C338.443 60.7471 337.165 61.5991 336.739 62.0251M336.739 62.0251V53.931V51.375H331.201V62.8771H336.739V62.0251Z" stroke="#F8567A" stroke-width="1.24975" stroke-linecap="round" stroke-linejoin="round"/>
<rect x="428.025" y="1.22656" width="124.975" height="124.975" rx="35.1177" fill="#FFF9F9" fill-opacity="0.8"/>
<rect x="433.441" y="6.64315" width="114.144" height="114.144" rx="34.7011" stroke="#F8567A" stroke-width="0.833167"/>
<path d="M453.419 78.2123V85.2109H452.089L448.6 80.9618V85.2109H447V78.2123H448.34L451.819 82.4615V78.2123H453.419ZM459.984 83.7112H456.735L456.115 85.2109H454.455L457.574 78.2123H459.174L462.304 85.2109H460.604L459.984 83.7112ZM459.474 82.4815L458.364 79.802L457.255 82.4815H459.474ZM469.748 78.2123V85.2109H468.419L464.929 80.9618V85.2109H463.33V78.2123H464.669L468.149 82.4615V78.2123H469.748ZM475.093 85.3309C474.367 85.3309 473.71 85.1743 473.124 84.861C472.544 84.5477 472.087 84.1178 471.754 83.5713C471.427 83.018 471.264 82.3982 471.264 81.7116C471.264 81.0251 471.427 80.4086 471.754 79.862C472.087 79.3088 472.544 78.8755 473.124 78.5623C473.71 78.249 474.367 78.0924 475.093 78.0924C475.82 78.0924 476.473 78.249 477.053 78.5623C477.633 78.8755 478.089 79.3088 478.423 79.862C478.756 80.4086 478.923 81.0251 478.923 81.7116C478.923 82.3982 478.756 83.018 478.423 83.5713C478.089 84.1178 477.633 84.5477 477.053 84.861C476.473 85.1743 475.82 85.3309 475.093 85.3309ZM475.093 83.9512C475.507 83.9512 475.88 83.8579 476.213 83.6712C476.546 83.4779 476.806 83.2113 476.993 82.8714C477.186 82.5315 477.283 82.1449 477.283 81.7116C477.283 81.2784 477.186 80.8918 476.993 80.5519C476.806 80.2119 476.546 79.9487 476.213 79.762C475.88 79.5687 475.507 79.4721 475.093 79.4721C474.68 79.4721 474.307 79.5687 473.974 79.762C473.64 79.9487 473.377 80.2119 473.184 80.5519C472.997 80.8918 472.904 81.2784 472.904 81.7116C472.904 82.1449 472.997 82.5315 473.184 82.8714C473.377 83.2113 473.64 83.4779 473.974 83.6712C474.307 83.8579 474.68 83.9512 475.093 83.9512ZM480.169 81.7716H482.998V83.0214H480.169V81.7716ZM488.024 85.3309C487.311 85.3309 486.664 85.1776 486.084 84.871C485.511 84.5577 485.058 84.1278 484.725 83.5813C484.398 83.028 484.235 82.4048 484.235 81.7116C484.235 81.0184 484.398 80.3986 484.725 79.852C485.058 79.2988 485.511 78.8689 486.084 78.5623C486.664 78.249 487.314 78.0924 488.034 78.0924C488.64 78.0924 489.187 78.199 489.674 78.4123C490.167 78.6256 490.58 78.9322 490.913 79.3321L489.873 80.2919C489.4 79.7454 488.814 79.4721 488.114 79.4721C487.681 79.4721 487.294 79.5687 486.954 79.762C486.614 79.9487 486.348 80.2119 486.154 80.5519C485.968 80.8918 485.874 81.2784 485.874 81.7116C485.874 82.1449 485.968 82.5315 486.154 82.8714C486.348 83.2113 486.614 83.4779 486.954 83.6712C487.294 83.8579 487.681 83.9512 488.114 83.9512C488.814 83.9512 489.4 83.6746 489.873 83.1214L490.913 84.0812C490.58 84.4877 490.167 84.7977 489.674 85.011C489.18 85.2243 488.63 85.3309 488.024 85.3309ZM495.55 85.3309C494.823 85.3309 494.167 85.1743 493.58 84.861C493 84.5477 492.544 84.1178 492.211 83.5713C491.884 83.018 491.721 82.3982 491.721 81.7116C491.721 81.0251 491.884 80.4086 492.211 79.862C492.544 79.3088 493 78.8755 493.58 78.5623C494.167 78.249 494.823 78.0924 495.55 78.0924C496.276 78.0924 496.93 78.249 497.509 78.5623C498.089 78.8755 498.546 79.3088 498.879 79.862C499.212 80.4086 499.379 81.0251 499.379 81.7116C499.379 82.3982 499.212 83.018 498.879 83.5713C498.546 84.1178 498.089 84.5477 497.509 84.861C496.93 85.1743 496.276 85.3309 495.55 85.3309ZM495.55 83.9512C495.963 83.9512 496.336 83.8579 496.67 83.6712C497.003 83.4779 497.263 83.2113 497.449 82.8714C497.643 82.5315 497.739 82.1449 497.739 81.7116C497.739 81.2784 497.643 80.8918 497.449 80.5519C497.263 80.2119 497.003 79.9487 496.67 79.762C496.336 79.5687 495.963 79.4721 495.55 79.4721C495.137 79.4721 494.763 79.5687 494.43 79.762C494.097 79.9487 493.834 80.2119 493.64 80.5519C493.454 80.8918 493.36 81.2784 493.36 81.7116C493.36 82.1449 493.454 82.5315 493.64 82.8714C493.834 83.2113 494.097 83.4779 494.43 83.6712C494.763 83.8579 495.137 83.9512 495.55 83.9512ZM505.408 83.7112H502.158L501.539 85.2109H499.879L502.998 78.2123H504.598L507.727 85.2109H506.028L505.408 83.7112ZM504.898 82.4815L503.788 79.802L502.678 82.4815H504.898ZM509.852 79.5321H507.612V78.2123H513.711V79.5321H511.471V85.2109H509.852V79.5321ZM514.882 78.2123H516.502V85.2109H514.882V78.2123ZM524.881 78.2123V85.2109H523.552L520.062 80.9618V85.2109H518.463V78.2123H519.802L523.282 82.4615V78.2123H524.881ZM531.566 81.6017H533.046V84.4411C532.666 84.7277 532.226 84.9477 531.726 85.101C531.226 85.2543 530.723 85.3309 530.217 85.3309C529.49 85.3309 528.837 85.1776 528.257 84.871C527.677 84.5577 527.22 84.1278 526.887 83.5813C526.561 83.028 526.397 82.4048 526.397 81.7116C526.397 81.0184 526.561 80.3986 526.887 79.852C527.22 79.2988 527.68 78.8689 528.267 78.5623C528.853 78.249 529.513 78.0924 530.247 78.0924C530.86 78.0924 531.416 78.1957 531.916 78.4023C532.416 78.6089 532.836 78.9089 533.176 79.3021L532.136 80.2619C531.636 79.7354 531.033 79.4721 530.327 79.4721C529.88 79.4721 529.483 79.5654 529.137 79.752C528.79 79.9387 528.52 80.2019 528.327 80.5419C528.134 80.8818 528.037 81.2717 528.037 81.7116C528.037 82.1449 528.134 82.5315 528.327 82.8714C528.52 83.2113 528.787 83.4779 529.127 83.6712C529.473 83.8579 529.867 83.9512 530.307 83.9512C530.773 83.9512 531.193 83.8512 531.566 83.6512V81.6017ZM454.221 90.5321H451.982V89.2123H458.08V90.5321H455.841V96.2109H454.221V90.5321ZM464.671 94.9112V96.2109H459.252V89.2123H464.541V90.5121H460.862V92.0318H464.111V93.2915H460.862V94.9112H464.671ZM469.589 96.3309C468.876 96.3309 468.23 96.1776 467.65 95.871C467.076 95.5577 466.623 95.1278 466.29 94.5813C465.963 94.028 465.8 93.4048 465.8 92.7116C465.8 92.0184 465.963 91.3986 466.29 90.852C466.623 90.2988 467.076 89.8689 467.65 89.5623C468.23 89.249 468.879 89.0924 469.599 89.0924C470.206 89.0924 470.752 89.199 471.239 89.4123C471.732 89.6256 472.145 89.9322 472.479 90.3321L471.439 91.2919C470.966 90.7454 470.379 90.4721 469.679 90.4721C469.246 90.4721 468.859 90.5687 468.519 90.762C468.18 90.9487 467.913 91.2119 467.72 91.5519C467.533 91.8918 467.44 92.2784 467.44 92.7116C467.44 93.1449 467.533 93.5315 467.72 93.8714C467.913 94.2113 468.18 94.4779 468.519 94.6712C468.859 94.8579 469.246 94.9512 469.679 94.9512C470.379 94.9512 470.966 94.6746 471.439 94.1214L472.479 95.0812C472.145 95.4877 471.732 95.7977 471.239 96.011C470.746 96.2243 470.196 96.3309 469.589 96.3309ZM480.291 89.2123V96.2109H478.671V93.3415H475.492V96.2109H473.872V89.2123H475.492V91.9718H478.671V89.2123H480.291ZM488.666 89.2123V96.2109H487.336L483.847 91.9618V96.2109H482.247V89.2123H483.587L487.066 93.4615V89.2123H488.666ZM494.011 96.3309C493.284 96.3309 492.628 96.1743 492.041 95.861C491.461 95.5477 491.005 95.1178 490.671 94.5713C490.345 94.018 490.181 93.3982 490.181 92.7116C490.181 92.0251 490.345 91.4086 490.671 90.862C491.005 90.3088 491.461 89.8755 492.041 89.5623C492.628 89.249 493.284 89.0924 494.011 89.0924C494.737 89.0924 495.39 89.249 495.97 89.5623C496.55 89.8755 497.007 90.3088 497.34 90.862C497.673 91.4086 497.84 92.0251 497.84 92.7116C497.84 93.3982 497.673 94.018 497.34 94.5713C497.007 95.1178 496.55 95.5477 495.97 95.861C495.39 96.1743 494.737 96.3309 494.011 96.3309ZM494.011 94.9512C494.424 94.9512 494.797 94.8579 495.13 94.6712C495.464 94.4779 495.724 94.2113 495.91 93.8714C496.104 93.5315 496.2 93.1449 496.2 92.7116C496.2 92.2784 496.104 91.8918 495.91 91.5519C495.724 91.2119 495.464 90.9487 495.13 90.762C494.797 90.5687 494.424 90.4721 494.011 90.4721C493.597 90.4721 493.224 90.5687 492.891 90.762C492.558 90.9487 492.294 91.2119 492.101 91.5519C491.914 91.8918 491.821 92.2784 491.821 92.7116C491.821 93.1449 491.914 93.5315 492.101 93.8714C492.294 94.2113 492.558 94.4779 492.891 94.6712C493.224 94.8579 493.597 94.9512 494.011 94.9512ZM499.357 89.2123H500.977V94.8912H504.486V96.2109H499.357V89.2123ZM508.963 96.3309C508.237 96.3309 507.58 96.1743 506.994 95.861C506.414 95.5477 505.957 95.1178 505.624 94.5713C505.297 94.018 505.134 93.3982 505.134 92.7116C505.134 92.0251 505.297 91.4086 505.624 90.862C505.957 90.3088 506.414 89.8755 506.994 89.5623C507.58 89.249 508.237 89.0924 508.963 89.0924C509.69 89.0924 510.343 89.249 510.923 89.5623C511.503 89.8755 511.959 90.3088 512.293 90.862C512.626 91.4086 512.792 92.0251 512.792 92.7116C512.792 93.3982 512.626 94.018 512.293 94.5713C511.959 95.1178 511.503 95.5477 510.923 95.861C510.343 96.1743 509.69 96.3309 508.963 96.3309ZM508.963 94.9512C509.376 94.9512 509.75 94.8579 510.083 94.6712C510.416 94.4779 510.676 94.2113 510.863 93.8714C511.056 93.5315 511.153 93.1449 511.153 92.7116C511.153 92.2784 511.056 91.8918 510.863 91.5519C510.676 91.2119 510.416 90.9487 510.083 90.762C509.75 90.5687 509.376 90.4721 508.963 90.4721C508.55 90.4721 508.177 90.5687 507.843 90.762C507.51 90.9487 507.247 91.2119 507.054 91.5519C506.867 91.8918 506.774 92.2784 506.774 92.7116C506.774 93.1449 506.867 93.5315 507.054 93.8714C507.247 94.2113 507.51 94.4779 507.843 94.6712C508.177 94.8579 508.55 94.9512 508.963 94.9512ZM519.039 92.6017H520.518V95.4411C520.138 95.7277 519.699 95.9477 519.199 96.101C518.699 96.2543 518.196 96.3309 517.689 96.3309C516.962 96.3309 516.309 96.1776 515.729 95.871C515.149 95.5577 514.693 95.1278 514.36 94.5813C514.033 94.028 513.87 93.4048 513.87 92.7116C513.87 92.0184 514.033 91.3986 514.36 90.852C514.693 90.2988 515.153 89.8689 515.739 89.5623C516.326 89.249 516.986 89.0924 517.719 89.0924C518.332 89.0924 518.889 89.1957 519.389 89.4023C519.889 89.6089 520.308 89.9089 520.648 90.3021L519.609 91.2619C519.109 90.7354 518.505 90.4721 517.799 90.4721C517.352 90.4721 516.956 90.5654 516.609 90.752C516.263 90.9387 515.993 91.2019 515.799 91.5419C515.606 91.8818 515.509 92.2717 515.509 92.7116C515.509 93.1449 515.606 93.5315 515.799 93.8714C515.993 94.2113 516.259 94.4779 516.599 94.6712C516.946 94.8579 517.339 94.9512 517.779 94.9512C518.246 94.9512 518.665 94.8512 519.039 94.6512V92.6017ZM525.682 93.7314V96.2109H524.063V93.7114L521.353 89.2123H523.073L524.942 92.3217L526.812 89.2123H528.402L525.682 93.7314Z" fill="#5F5F5F"/>
<rect x="1.2666" y="145.367" width="124.975" height="124.975" rx="35.1177" fill="#FFF9F9" fill-opacity="0.8"/>
<rect x="6.68221" y="150.784" width="114.144" height="114.144" rx="34.7011" stroke="#F8567A" stroke-width="0.833167"/>
<path d="M33.3576 228.032V229.352H28.0687V228.302L30.7681 225.752C31.0548 225.479 31.248 225.246 31.348 225.052C31.448 224.852 31.498 224.656 31.498 224.463C31.498 224.183 31.4013 223.969 31.2081 223.823C31.0214 223.669 30.7448 223.593 30.3782 223.593C30.0716 223.593 29.795 223.653 29.5484 223.773C29.3018 223.886 29.0951 224.059 28.9285 224.293L27.7487 223.533C28.022 223.126 28.3986 222.81 28.8785 222.583C29.3584 222.35 29.9083 222.233 30.5282 222.233C31.0481 222.233 31.5013 222.32 31.8879 222.493C32.2812 222.66 32.5844 222.9 32.7977 223.213C33.0177 223.519 33.1277 223.883 33.1277 224.303C33.1277 224.682 33.0477 225.039 32.8877 225.372C32.7278 225.706 32.4178 226.086 31.9579 226.512L30.3482 228.032H33.3576ZM34.4168 225.912H37.2462V227.162H34.4168V225.912ZM44.8912 227.882H43.7514V229.352H42.1717V227.882H38.4025V226.792L41.7018 222.353H43.4015L40.3421 226.562H42.2217V225.252H43.7514V226.562H44.8912V227.882ZM52.3563 229.472C51.3565 229.472 50.5766 229.195 50.0167 228.642C49.4635 228.088 49.1869 227.299 49.1869 226.272V222.353H50.8066V226.212C50.8066 227.465 51.3265 228.092 52.3663 228.092C52.8728 228.092 53.2594 227.942 53.526 227.642C53.7926 227.335 53.9259 226.859 53.9259 226.212V222.353H55.5256V226.272C55.5256 227.299 55.2457 228.088 54.6858 228.642C54.1326 229.195 53.3561 229.472 52.3563 229.472ZM59.7256 229.472C59.1724 229.472 58.6359 229.398 58.116 229.252C57.6027 229.098 57.1895 228.902 56.8762 228.662L57.4261 227.442C57.726 227.662 58.0826 227.839 58.4959 227.972C58.9091 228.105 59.3224 228.172 59.7356 228.172C60.1956 228.172 60.5355 228.105 60.7554 227.972C60.9754 227.832 61.0854 227.649 61.0854 227.422C61.0854 227.255 61.0187 227.119 60.8854 227.012C60.7588 226.899 60.5921 226.809 60.3855 226.742C60.1856 226.675 59.9123 226.602 59.5657 226.522C59.0325 226.395 58.5959 226.269 58.2559 226.142C57.916 226.016 57.6227 225.812 57.3761 225.532C57.1362 225.252 57.0162 224.879 57.0162 224.413C57.0162 224.006 57.1262 223.639 57.3461 223.313C57.5661 222.979 57.896 222.716 58.3359 222.523C58.7825 222.33 59.3257 222.233 59.9656 222.233C60.4122 222.233 60.8488 222.286 61.2753 222.393C61.7019 222.5 62.0752 222.653 62.3951 222.853L61.8952 224.083C61.2487 223.716 60.6021 223.533 59.9556 223.533C59.5024 223.533 59.1658 223.606 58.9458 223.753C58.7325 223.899 58.6259 224.093 58.6259 224.333C58.6259 224.573 58.7492 224.752 58.9958 224.872C59.2491 224.986 59.6323 225.099 60.1456 225.212C60.6788 225.339 61.1154 225.466 61.4553 225.592C61.7952 225.719 62.0852 225.919 62.3251 226.192C62.5717 226.465 62.6951 226.835 62.6951 227.302C62.6951 227.702 62.5817 228.068 62.3551 228.402C62.1352 228.728 61.8019 228.988 61.3553 229.182C60.9087 229.375 60.3655 229.472 59.7256 229.472ZM69.5206 228.052V229.352H64.1017V222.353H69.3907V223.653H65.7114V225.172H68.9608V226.432H65.7114V228.052H69.5206ZM73.4089 229.472C72.8556 229.472 72.3191 229.398 71.7992 229.252C71.2859 229.098 70.8727 228.902 70.5594 228.662L71.1093 227.442C71.4093 227.662 71.7659 227.839 72.1791 227.972C72.5924 228.105 73.0056 228.172 73.4189 228.172C73.8788 228.172 74.2187 228.105 74.4387 227.972C74.6586 227.832 74.7686 227.649 74.7686 227.422C74.7686 227.255 74.7019 227.119 74.5686 227.012C74.442 226.899 74.2753 226.809 74.0687 226.742C73.8688 226.675 73.5955 226.602 73.2489 226.522C72.7157 226.395 72.2791 226.269 71.9391 226.142C71.5992 226.016 71.3059 225.812 71.0593 225.532C70.8194 225.252 70.6994 224.879 70.6994 224.413C70.6994 224.006 70.8094 223.639 71.0293 223.313C71.2493 222.979 71.5792 222.716 72.0191 222.523C72.4657 222.33 73.0089 222.233 73.6488 222.233C74.0954 222.233 74.532 222.286 74.9585 222.393C75.3851 222.5 75.7584 222.653 76.0783 222.853L75.5784 224.083C74.9319 223.716 74.2853 223.533 73.6388 223.533C73.1856 223.533 72.849 223.606 72.629 223.753C72.4157 223.899 72.3091 224.093 72.3091 224.333C72.3091 224.573 72.4324 224.752 72.679 224.872C72.9323 224.986 73.3155 225.099 73.8288 225.212C74.362 225.339 74.7986 225.466 75.1385 225.592C75.4784 225.719 75.7684 225.919 76.0083 226.192C76.255 226.465 76.3783 226.835 76.3783 227.302C76.3783 227.702 76.265 228.068 76.0383 228.402C75.8184 228.728 75.4851 228.988 75.0385 229.182C74.592 229.375 74.0487 229.472 73.4089 229.472ZM83.9457 222.353C84.5656 222.353 85.1022 222.456 85.5554 222.663C86.0153 222.87 86.3686 223.163 86.6152 223.543C86.8618 223.923 86.9851 224.373 86.9851 224.892C86.9851 225.406 86.8618 225.856 86.6152 226.242C86.3686 226.622 86.0153 226.915 85.5554 227.122C85.1022 227.322 84.5656 227.422 83.9457 227.422H82.536V229.352H80.9163V222.353H83.9457ZM83.8558 226.102C84.3423 226.102 84.7123 225.999 84.9655 225.792C85.2188 225.579 85.3455 225.279 85.3455 224.892C85.3455 224.499 85.2188 224.199 84.9655 223.993C84.7123 223.779 84.3423 223.673 83.8558 223.673H82.536V226.102H83.8558ZM93.8603 228.052V229.352H88.4414V222.353H93.7304V223.653H90.0511V225.172H93.3004V226.432H90.0511V228.052H93.8603ZM99.9081 229.352L98.5584 227.402H98.4784H97.0687V229.352H95.449V222.353H98.4784C99.0983 222.353 99.6348 222.456 100.088 222.663C100.548 222.87 100.901 223.163 101.148 223.543C101.394 223.923 101.518 224.373 101.518 224.892C101.518 225.412 101.391 225.862 101.138 226.242C100.891 226.615 100.538 226.902 100.078 227.102L101.648 229.352H99.9081ZM99.8781 224.892C99.8781 224.499 99.7515 224.199 99.4982 223.993C99.2449 223.779 98.875 223.673 98.3884 223.673H97.0687V226.112H98.3884C98.875 226.112 99.2449 226.006 99.4982 225.792C99.7515 225.579 99.8781 225.279 99.8781 224.892ZM44.4512 240.472C43.738 240.472 43.0914 240.318 42.5115 240.012C41.9383 239.698 41.4851 239.268 41.1518 238.722C40.8252 238.169 40.6619 237.545 40.6619 236.852C40.6619 236.159 40.8252 235.539 41.1518 234.993C41.4851 234.439 41.9383 234.009 42.5115 233.703C43.0914 233.39 43.7413 233.233 44.4612 233.233C45.0677 233.233 45.6143 233.34 46.1008 233.553C46.5941 233.766 47.0073 234.073 47.3406 234.473L46.3008 235.433C45.8275 234.886 45.241 234.613 44.5411 234.613C44.1079 234.613 43.7213 234.709 43.3814 234.903C43.0414 235.089 42.7748 235.353 42.5815 235.692C42.3949 236.032 42.3016 236.419 42.3016 236.852C42.3016 237.286 42.3949 237.672 42.5815 238.012C42.7748 238.352 43.0414 238.619 43.3814 238.812C43.7213 238.998 44.1079 239.092 44.5411 239.092C45.241 239.092 45.8275 238.815 46.3008 238.262L47.3406 239.222C47.0073 239.628 46.5941 239.938 46.1008 240.152C45.6076 240.365 45.0577 240.472 44.4512 240.472ZM55.153 233.353V240.352H53.5333V237.482H50.354V240.352H48.7343V233.353H50.354V236.112H53.5333V233.353H55.153ZM61.7179 238.852H58.4685L57.8486 240.352H56.189L59.3083 233.353H60.908L64.0374 240.352H62.3377L61.7179 238.852ZM61.208 237.622L60.0982 234.943L58.9884 237.622H61.208ZM69.5226 240.352L68.1728 238.402H68.0928H66.6831V240.352H65.0635V233.353H68.0928C68.7127 233.353 69.2493 233.456 69.7025 233.663C70.1624 233.87 70.5157 234.163 70.7623 234.543C71.0089 234.923 71.1322 235.373 71.1322 235.892C71.1322 236.412 71.0056 236.862 70.7523 237.242C70.5057 237.615 70.1524 237.902 69.6925 238.102L71.2622 240.352H69.5226ZM69.4926 235.892C69.4926 235.499 69.3659 235.199 69.1126 234.993C68.8594 234.779 68.4894 234.673 68.0029 234.673H66.6831V237.112H68.0029C68.4894 237.112 68.8594 237.006 69.1126 236.792C69.3659 236.579 69.4926 236.279 69.4926 235.892ZM77.4445 236.742H78.9242V239.582C78.5443 239.868 78.1044 240.088 77.6045 240.242C77.1046 240.395 76.6013 240.472 76.0948 240.472C75.3682 240.472 74.715 240.318 74.1352 240.012C73.5553 239.698 73.0987 239.268 72.7654 238.722C72.4388 238.169 72.2755 237.545 72.2755 236.852C72.2755 236.159 72.4388 235.539 72.7654 234.993C73.0987 234.439 73.5586 234.009 74.1452 233.703C74.7317 233.39 75.3916 233.233 76.1248 233.233C76.738 233.233 77.2945 233.336 77.7944 233.543C78.2943 233.75 78.7142 234.049 79.0542 234.443L78.0144 235.403C77.5145 234.876 76.9113 234.613 76.2047 234.613C75.7582 234.613 75.3616 234.706 75.015 234.893C74.6684 235.079 74.3984 235.343 74.2051 235.682C74.0118 236.022 73.9152 236.412 73.9152 236.852C73.9152 237.286 74.0118 237.672 74.2051 238.012C74.3984 238.352 74.6651 238.619 75.005 238.812C75.3516 238.998 75.7448 239.092 76.1847 239.092C76.6513 239.092 77.0712 238.992 77.4445 238.792V236.742ZM86.1476 239.052V240.352H80.7287V233.353H86.0176V234.653H82.3384V236.172H85.5877V237.432H82.3384V239.052H86.1476Z" fill="#5F5F5F"/>
<path d="M67.2354 174.719L54.1133 193.393H63.1978L59.1603 207.019L73.7965 187.841H64.7119L67.2354 174.719Z" stroke="#F8567A" stroke-width="1.24975" stroke-linecap="round" stroke-linejoin="round"/>
<path d="M71.7781 176.738H79.8532C80.5262 177.243 81.5352 178.386 81.872 179.766C82.1055 180.724 81.872 181.953 81.872 182.29H84.9002C85.2367 182.458 85.9096 182.896 85.9096 183.299C85.9096 183.703 85.9096 192.216 85.9096 196.421C85.7414 196.926 85.203 197.936 84.3955 197.936C83.588 197.936 82.3767 197.936 81.872 197.936C81.872 197.936 82.2507 199.843 81.872 200.964C81.4679 202.159 80.6607 203.487 79.8532 203.487C79.0457 203.487 71.4416 203.487 67.7405 203.487" stroke="#F8567A" stroke-width="1.24975" stroke-linecap="round" stroke-linejoin="round"/>
<path d="M53.1043 202.983C53.1043 202.983 45.5339 202.983 45.0292 202.983C44.5245 202.983 42.001 200.459 42.001 199.954C42.001 199.45 42.001 180.271 42.001 179.766C42.001 179.262 44.5245 176.738 45.0292 176.738C45.5339 176.738 59.1607 176.738 59.1607 176.738" stroke="#F8567A" stroke-width="1.24975" stroke-linecap="round" stroke-linejoin="round"/>
<rect x="142.902" y="145.367" width="124.975" height="124.975" rx="35.1177" fill="#FFF9F9" fill-opacity="0.8"/>
<rect x="148.319" y="150.784" width="114.144" height="114.144" rx="34.7011" stroke="#F8567A" stroke-width="0.833167"/>
<rect x="284.539" y="145.367" width="124.975" height="124.975" rx="35.1177" fill="#FFF9F9" fill-opacity="0.8"/>
<rect x="289.955" y="150.784" width="114.144" height="114.144" rx="34.7011" stroke="#F8567A" stroke-width="0.833167"/>
<rect x="428.021" y="145.367" width="124.975" height="124.975" rx="35.1177" fill="#FFF9F9" fill-opacity="0.8"/>
<path d="M475.756 171C474.429 172.367 471.895 175.464 472.74 178.962C473.564 182.378 477.686 184.995 478.772 188.011C479.59 190.284 479.617 193.319 475.756 196.214" stroke="#F8567A" stroke-width="1.25" stroke-linecap="round" stroke-linejoin="round"/>
<path d="M487.507 171C486.18 172.367 483.646 175.464 484.491 178.962C485.315 182.378 489.437 184.995 490.523 188.011C491.341 190.284 491.367 193.319 487.507 196.214" stroke="#F8567A" stroke-width="1.25" stroke-linecap="round" stroke-linejoin="round"/>
<path d="M499.329 171C498.002 172.367 495.469 175.464 496.313 178.962C497.137 182.378 501.26 184.995 502.345 188.011C503.164 190.284 503.19 193.319 499.329 196.214" stroke="#F8567A" stroke-width="1.25" stroke-linecap="round" stroke-linejoin="round"/>
<path d="M514 201.281H470.086C470.086 201.281 469 202.825 469 203.815C469 204.804 470.086 206.348 470.086 206.348H505.796" stroke="#F8567A" stroke-width="1.25" stroke-linecap="round" stroke-linejoin="round"/>
<rect x="433.436" y="150.784" width="114.144" height="114.144" rx="34.7011" stroke="#F8567A" stroke-width="0.833167"/>
<path d="M156.76 229.472C156.046 229.472 155.4 229.318 154.82 229.012C154.247 228.698 153.793 228.268 153.46 227.722C153.134 227.169 152.97 226.545 152.97 225.852C152.97 225.159 153.134 224.539 153.46 223.993C153.793 223.439 154.247 223.009 154.82 222.703C155.4 222.39 156.05 222.233 156.77 222.233C157.376 222.233 157.923 222.34 158.409 222.553C158.902 222.766 159.316 223.073 159.649 223.473L158.609 224.433C158.136 223.886 157.549 223.613 156.85 223.613C156.416 223.613 156.03 223.709 155.69 223.903C155.35 224.089 155.083 224.353 154.89 224.692C154.703 225.032 154.61 225.419 154.61 225.852C154.61 226.286 154.703 226.672 154.89 227.012C155.083 227.352 155.35 227.619 155.69 227.812C156.03 227.998 156.416 228.092 156.85 228.092C157.549 228.092 158.136 227.815 158.609 227.262L159.649 228.222C159.316 228.628 158.902 228.938 158.409 229.152C157.916 229.365 157.366 229.472 156.76 229.472ZM164.286 229.472C163.559 229.472 162.902 229.315 162.316 229.002C161.736 228.688 161.279 228.258 160.946 227.712C160.62 227.159 160.456 226.539 160.456 225.852C160.456 225.166 160.62 224.549 160.946 224.003C161.279 223.449 161.736 223.016 162.316 222.703C162.902 222.39 163.559 222.233 164.286 222.233C165.012 222.233 165.665 222.39 166.245 222.703C166.825 223.016 167.282 223.449 167.615 224.003C167.948 224.549 168.115 225.166 168.115 225.852C168.115 226.539 167.948 227.159 167.615 227.712C167.282 228.258 166.825 228.688 166.245 229.002C165.665 229.315 165.012 229.472 164.286 229.472ZM164.286 228.092C164.699 228.092 165.072 227.998 165.405 227.812C165.739 227.619 165.999 227.352 166.185 227.012C166.378 226.672 166.475 226.286 166.475 225.852C166.475 225.419 166.378 225.032 166.185 224.692C165.999 224.353 165.739 224.089 165.405 223.903C165.072 223.709 164.699 223.613 164.286 223.613C163.872 223.613 163.499 223.709 163.166 223.903C162.832 224.089 162.569 224.353 162.376 224.692C162.189 225.032 162.096 225.419 162.096 225.852C162.096 226.286 162.189 226.672 162.376 227.012C162.569 227.352 162.832 227.619 163.166 227.812C163.499 227.998 163.872 228.092 164.286 228.092ZM176.001 229.352L175.991 225.152L173.931 228.612H173.201L171.152 225.242V229.352H169.632V222.353H170.972L173.591 226.702L176.171 222.353H177.5L177.52 229.352H176.001ZM182.51 222.353C183.13 222.353 183.667 222.456 184.12 222.663C184.58 222.87 184.933 223.163 185.18 223.543C185.426 223.923 185.55 224.373 185.55 224.892C185.55 225.406 185.426 225.856 185.18 226.242C184.933 226.622 184.58 226.915 184.12 227.122C183.667 227.322 183.13 227.422 182.51 227.422H181.1V229.352H179.481V222.353H182.51ZM182.42 226.102C182.907 226.102 183.277 225.999 183.53 225.792C183.783 225.579 183.91 225.279 183.91 224.892C183.91 224.499 183.783 224.199 183.53 223.993C183.277 223.779 182.907 223.673 182.42 223.673H181.1V226.102H182.42ZM191.263 227.852H188.014L187.394 229.352H185.735L188.854 222.353H190.454L193.583 229.352H191.883L191.263 227.852ZM190.754 226.622L189.644 223.943L188.534 226.622H190.754ZM197.861 229.472C197.148 229.472 196.501 229.318 195.921 229.012C195.348 228.698 194.895 228.268 194.561 227.722C194.235 227.169 194.071 226.545 194.071 225.852C194.071 225.159 194.235 224.539 194.561 223.993C194.895 223.439 195.348 223.009 195.921 222.703C196.501 222.39 197.151 222.233 197.871 222.233C198.477 222.233 199.024 222.34 199.51 222.553C200.004 222.766 200.417 223.073 200.75 223.473L199.71 224.433C199.237 223.886 198.651 223.613 197.951 223.613C197.517 223.613 197.131 223.709 196.791 223.903C196.451 224.089 196.184 224.353 195.991 224.692C195.804 225.032 195.711 225.419 195.711 225.852C195.711 226.286 195.804 226.672 195.991 227.012C196.184 227.352 196.451 227.619 196.791 227.812C197.131 227.998 197.517 228.092 197.951 228.092C198.651 228.092 199.237 227.815 199.71 227.262L200.75 228.222C200.417 228.628 200.004 228.938 199.51 229.152C199.017 229.365 198.467 229.472 197.861 229.472ZM203.525 223.673H201.286V222.353H207.384V223.673H205.145V229.352H203.525V223.673ZM213.137 223.673H210.897V222.353H216.996V223.673H214.757V229.352H213.137V223.673ZM222.627 229.352L221.277 227.402H221.197H219.787V229.352H218.168V222.353H221.197C221.817 222.353 222.353 222.456 222.807 222.663C223.267 222.87 223.62 223.163 223.866 223.543C224.113 223.923 224.236 224.373 224.236 224.892C224.236 225.412 224.11 225.862 223.856 226.242C223.61 226.615 223.257 226.902 222.797 227.102L224.366 229.352H222.627ZM222.597 224.892C222.597 224.499 222.47 224.199 222.217 223.993C221.964 223.779 221.594 223.673 221.107 223.673H219.787V226.112H221.107C221.594 226.112 221.964 226.006 222.217 225.792C222.47 225.579 222.597 225.279 222.597 224.892ZM230.429 227.852H227.179L226.559 229.352H224.9L228.019 222.353H229.619L232.748 229.352H231.049L230.429 227.852ZM229.919 226.622L228.809 223.943L227.699 226.622H229.919ZM240.122 222.353L237.093 229.352H235.493L232.474 222.353H234.223L236.353 227.352L238.512 222.353H240.122ZM246.425 228.052V229.352H241.006V222.353H246.295V223.653H242.616V225.172H245.865V226.432H242.616V228.052H246.425ZM248.014 222.353H249.634V228.032H253.143V229.352H248.014V222.353ZM254.038 225.912H256.867V227.162H254.038V225.912ZM157.642 234.653V236.502H160.881V237.802H157.642V240.352H156.022V233.353H161.311V234.653H157.642ZM167.166 240.352L165.817 238.402H165.737H164.327V240.352H162.707V233.353H165.737C166.357 233.353 166.893 233.456 167.346 233.663C167.806 233.87 168.16 234.163 168.406 234.543C168.653 234.923 168.776 235.373 168.776 235.892C168.776 236.412 168.65 236.862 168.396 237.242C168.15 237.615 167.796 237.902 167.336 238.102L168.906 240.352H167.166ZM167.136 235.892C167.136 235.499 167.01 235.199 166.757 234.993C166.503 234.779 166.133 234.673 165.647 234.673H164.327V237.112H165.647C166.133 237.112 166.503 237.006 166.757 236.792C167.01 236.579 167.136 236.279 167.136 235.892ZM170.359 233.353H171.979V240.352H170.359V233.353ZM179.359 239.052V240.352H173.94V233.353H179.229V234.653H175.55V236.172H178.799V237.432H175.55V239.052H179.359ZM187.366 233.353V240.352H186.036L182.547 236.102V240.352H180.947V233.353H182.287L185.767 237.602V233.353H187.366ZM189.322 233.353H192.501C193.261 233.353 193.931 233.5 194.511 233.793C195.098 234.079 195.551 234.486 195.871 235.013C196.197 235.539 196.361 236.152 196.361 236.852C196.361 237.552 196.197 238.165 195.871 238.692C195.551 239.218 195.098 239.628 194.511 239.922C193.931 240.208 193.261 240.352 192.501 240.352H189.322V233.353ZM192.421 239.022C193.121 239.022 193.678 238.829 194.091 238.442C194.511 238.049 194.721 237.519 194.721 236.852C194.721 236.186 194.511 235.659 194.091 235.273C193.678 234.879 193.121 234.683 192.421 234.683H190.942V239.022H192.421ZM197.882 233.353H199.502V239.032H203.011V240.352H197.882V233.353ZM206.853 237.872V240.352H205.233V237.852L202.524 233.353H204.243L206.113 236.462L207.982 233.353H209.572L206.853 237.872ZM213.681 233.353H216.861C217.62 233.353 218.29 233.5 218.87 233.793C219.457 234.079 219.91 234.486 220.23 235.013C220.556 235.539 220.72 236.152 220.72 236.852C220.72 237.552 220.556 238.165 220.23 238.692C219.91 239.218 219.457 239.628 218.87 239.922C218.29 240.208 217.62 240.352 216.861 240.352H213.681V233.353ZM216.781 239.022C217.48 239.022 218.037 238.829 218.45 238.442C218.87 238.049 219.08 237.519 219.08 236.852C219.08 236.186 218.87 235.659 218.45 235.273C218.037 234.879 217.48 234.683 216.781 234.683H215.301V239.022H216.781ZM227.66 239.052V240.352H222.241V233.353H227.53V234.653H223.851V236.172H227.1V237.432H223.851V239.052H227.66ZM231.548 240.472C230.995 240.472 230.459 240.398 229.939 240.252C229.425 240.098 229.012 239.902 228.699 239.662L229.249 238.442C229.549 238.662 229.905 238.839 230.319 238.972C230.732 239.105 231.145 239.172 231.558 239.172C232.018 239.172 232.358 239.105 232.578 238.972C232.798 238.832 232.908 238.649 232.908 238.422C232.908 238.255 232.841 238.119 232.708 238.012C232.581 237.899 232.415 237.809 232.208 237.742C232.008 237.675 231.735 237.602 231.388 237.522C230.855 237.395 230.419 237.269 230.079 237.142C229.739 237.016 229.445 236.812 229.199 236.532C228.959 236.252 228.839 235.879 228.839 235.413C228.839 235.006 228.949 234.639 229.169 234.313C229.389 233.979 229.719 233.716 230.159 233.523C230.605 233.33 231.148 233.233 231.788 233.233C232.235 233.233 232.671 233.286 233.098 233.393C233.525 233.5 233.898 233.653 234.218 233.853L233.718 235.083C233.071 234.716 232.425 234.533 231.778 234.533C231.325 234.533 230.988 234.606 230.768 234.753C230.555 234.899 230.449 235.093 230.449 235.333C230.449 235.573 230.572 235.752 230.818 235.872C231.072 235.986 231.455 236.099 231.968 236.212C232.501 236.339 232.938 236.466 233.278 236.592C233.618 236.719 233.908 236.919 234.148 237.192C234.394 237.465 234.518 237.835 234.518 238.302C234.518 238.702 234.404 239.068 234.178 239.402C233.958 239.728 233.625 239.988 233.178 240.182C232.731 240.375 232.188 240.472 231.548 240.472ZM235.924 233.353H237.544V240.352H235.924V233.353ZM244.234 236.742H245.714V239.582C245.334 239.868 244.894 240.088 244.394 240.242C243.894 240.395 243.391 240.472 242.884 240.472C242.158 240.472 241.505 240.318 240.925 240.012C240.345 239.698 239.888 239.268 239.555 238.722C239.228 238.169 239.065 237.545 239.065 236.852C239.065 236.159 239.228 235.539 239.555 234.993C239.888 234.439 240.348 234.009 240.935 233.703C241.521 233.39 242.181 233.233 242.914 233.233C243.527 233.233 244.084 233.336 244.584 233.543C245.084 233.75 245.504 234.049 245.844 234.443L244.804 235.403C244.304 234.876 243.701 234.613 242.994 234.613C242.548 234.613 242.151 234.706 241.804 234.893C241.458 235.079 241.188 235.343 240.995 235.682C240.801 236.022 240.705 236.412 240.705 236.852C240.705 237.286 240.801 237.672 240.995 238.012C241.188 238.352 241.455 238.619 241.794 238.812C242.141 238.998 242.534 239.092 242.974 239.092C243.441 239.092 243.861 238.992 244.234 238.792V236.742ZM253.937 233.353V240.352H252.607L249.118 236.102V240.352H247.518V233.353H248.858L252.337 237.602V233.353H253.937Z" fill="#5F5F5F"/>
<path d="M224.439 180.434H185.419C184.976 187.38 183.646 200.83 184.089 202.604C184.533 204.377 186.75 206.594 187.636 206.594C188.523 206.594 219.207 206.949 221.335 206.594C223.463 206.24 225.769 203.934 225.769 202.604C225.769 201.273 224.439 180.434 224.439 180.434Z" stroke="#F8567A" stroke-width="1.24975" stroke-linecap="round" stroke-linejoin="round"/>
<path d="M195.618 203.047L187.637 197.727C187.489 198.466 187.193 200.21 187.193 201.274C187.193 202.338 188.376 202.9 188.967 203.047H195.618Z" stroke="#F8567A" stroke-width="1.24975" stroke-linecap="round" stroke-linejoin="round"/>
<path d="M214.685 203.047L222.666 197.727C222.814 198.466 223.109 200.21 223.109 201.274C223.109 202.338 221.927 202.9 221.336 203.047H214.685Z" stroke="#F8567A" stroke-width="1.24975" stroke-linecap="round" stroke-linejoin="round"/>
<path d="M213.355 190.633H216.903C216.903 189.155 216.903 186.111 216.903 185.756C216.903 185.401 216.016 184.721 215.572 184.426C208.626 184.426 194.644 184.426 194.289 184.426C193.934 184.426 193.55 185.313 193.402 185.756V190.633H210.695M213.355 190.633V187.973H210.695V190.633M213.355 190.633V192.407H210.695V190.633" stroke="#F8567A" stroke-width="1.24975" stroke-linecap="round" stroke-linejoin="round"/>
<path d="M196.062 187.973H214.242" stroke="#F8567A" stroke-width="1.24975" stroke-linecap="round" stroke-linejoin="round"/>
<path d="M186.75 180.435L185.42 172.897C185.568 172.158 186.129 170.68 187.194 170.68C188.258 170.68 188.819 172.158 188.967 172.897L188.08 180.435" stroke="#F8567A" stroke-width="1.24975" stroke-linecap="round" stroke-linejoin="round"/>
<path d="M302.9 224.962C303.346 224.962 303.753 225.052 304.119 225.232C304.486 225.412 304.776 225.669 304.989 226.002C305.202 226.329 305.309 226.709 305.309 227.142C305.309 227.609 305.192 228.018 304.959 228.372C304.726 228.725 304.406 228.998 303.999 229.192C303.599 229.378 303.153 229.472 302.66 229.472C301.68 229.472 300.913 229.172 300.36 228.572C299.807 227.972 299.53 227.115 299.53 226.002C299.53 225.209 299.68 224.529 299.98 223.963C300.28 223.396 300.697 222.966 301.23 222.673C301.77 222.38 302.393 222.233 303.1 222.233C303.473 222.233 303.829 222.276 304.169 222.363C304.516 222.443 304.809 222.56 305.049 222.713L304.449 223.903C304.103 223.669 303.666 223.553 303.14 223.553C302.546 223.553 302.076 223.726 301.73 224.073C301.383 224.419 301.197 224.922 301.17 225.582C301.583 225.169 302.16 224.962 302.9 224.962ZM302.57 228.262C302.916 228.262 303.196 228.168 303.409 227.982C303.629 227.795 303.739 227.542 303.739 227.222C303.739 226.902 303.629 226.649 303.409 226.462C303.196 226.269 302.91 226.172 302.55 226.172C302.196 226.172 301.906 226.272 301.68 226.472C301.453 226.665 301.34 226.915 301.34 227.222C301.34 227.529 301.45 227.779 301.67 227.972C301.89 228.165 302.19 228.262 302.57 228.262ZM316.186 222.353V229.352H314.566V226.482H311.387V229.352H309.767V222.353H311.387V225.112H314.566V222.353H316.186ZM323.561 228.052V229.352H318.142V222.353H323.431V223.653H319.752V225.172H323.001V226.432H319.752V228.052H323.561ZM329.759 227.852H326.509L325.889 229.352H324.23L327.349 222.353H328.949L332.078 229.352H330.378L329.759 227.852ZM329.249 226.622L328.139 223.943L327.029 226.622H329.249ZM334.202 223.673H331.963V222.353H338.062V223.673H335.822V229.352H334.202V223.673ZM344.664 229.472C344.111 229.472 343.574 229.398 343.054 229.252C342.541 229.098 342.128 228.902 341.815 228.662L342.364 227.442C342.664 227.662 343.021 227.839 343.434 227.972C343.847 228.105 344.261 228.172 344.674 228.172C345.134 228.172 345.474 228.105 345.694 227.972C345.914 227.832 346.024 227.649 346.024 227.422C346.024 227.255 345.957 227.119 345.824 227.012C345.697 226.899 345.53 226.809 345.324 226.742C345.124 226.675 344.851 226.602 344.504 226.522C343.971 226.395 343.534 226.269 343.194 226.142C342.854 226.016 342.561 225.812 342.314 225.532C342.074 225.252 341.955 224.879 341.955 224.413C341.955 224.006 342.064 223.639 342.284 223.313C342.504 222.979 342.834 222.716 343.274 222.523C343.721 222.33 344.264 222.233 344.904 222.233C345.351 222.233 345.787 222.286 346.214 222.393C346.64 222.5 347.014 222.653 347.333 222.853L346.834 224.083C346.187 223.716 345.54 223.533 344.894 223.533C344.441 223.533 344.104 223.606 343.884 223.753C343.671 223.899 343.564 224.093 343.564 224.333C343.564 224.573 343.688 224.752 343.934 224.872C344.187 224.986 344.571 225.099 345.084 225.212C345.617 225.339 346.054 225.466 346.394 225.592C346.734 225.719 347.024 225.919 347.263 226.192C347.51 226.465 347.633 226.835 347.633 227.302C347.633 227.702 347.52 228.068 347.293 228.402C347.073 228.728 346.74 228.988 346.294 229.182C345.847 229.375 345.304 229.472 344.664 229.472ZM354.459 228.052V229.352H349.04V222.353H354.329V223.653H350.65V225.172H353.899V226.432H350.65V228.052H354.459ZM357.497 223.673H355.258V222.353H361.357V223.673H359.117V229.352H357.497V223.673ZM364.075 223.673H361.836V222.353H367.935V223.673H365.695V229.352H364.075V223.673ZM369.106 222.353H370.726V229.352H369.106V222.353ZM379.105 222.353V229.352H377.775L374.286 225.102V229.352H372.687V222.353H374.026L377.506 226.602V222.353H379.105ZM385.79 225.742H387.27V228.582C386.89 228.868 386.45 229.088 385.95 229.242C385.45 229.395 384.947 229.472 384.44 229.472C383.714 229.472 383.061 229.318 382.481 229.012C381.901 228.698 381.444 228.268 381.111 227.722C380.784 227.169 380.621 226.545 380.621 225.852C380.621 225.159 380.784 224.539 381.111 223.993C381.444 223.439 381.904 223.009 382.491 222.703C383.077 222.39 383.737 222.233 384.47 222.233C385.084 222.233 385.64 222.336 386.14 222.543C386.64 222.75 387.06 223.049 387.4 223.443L386.36 224.403C385.86 223.876 385.257 223.613 384.55 223.613C384.104 223.613 383.707 223.706 383.361 223.893C383.014 224.079 382.744 224.343 382.551 224.682C382.357 225.022 382.261 225.412 382.261 225.852C382.261 226.286 382.357 226.672 382.551 227.012C382.744 227.352 383.011 227.619 383.351 227.812C383.697 227.998 384.09 228.092 384.53 228.092C384.997 228.092 385.417 227.992 385.79 227.792V225.742ZM391.374 229.472C390.821 229.472 390.284 229.398 389.764 229.252C389.251 229.098 388.838 228.902 388.524 228.662L389.074 227.442C389.374 227.662 389.731 227.839 390.144 227.972C390.557 228.105 390.971 228.172 391.384 228.172C391.844 228.172 392.184 228.105 392.404 227.972C392.624 227.832 392.734 227.649 392.734 227.422C392.734 227.255 392.667 227.119 392.534 227.012C392.407 226.899 392.24 226.809 392.034 226.742C391.834 226.675 391.56 226.602 391.214 226.522C390.681 226.395 390.244 226.269 389.904 226.142C389.564 226.016 389.271 225.812 389.024 225.532C388.784 225.252 388.664 224.879 388.664 224.413C388.664 224.006 388.774 223.639 388.994 223.313C389.214 222.979 389.544 222.716 389.984 222.523C390.431 222.33 390.974 222.233 391.614 222.233C392.06 222.233 392.497 222.286 392.923 222.393C393.35 222.5 393.723 222.653 394.043 222.853L393.543 224.083C392.897 223.716 392.25 223.533 391.604 223.533C391.151 223.533 390.814 223.606 390.594 223.753C390.381 223.899 390.274 224.093 390.274 224.333C390.274 224.573 390.397 224.752 390.644 224.872C390.897 224.986 391.28 225.099 391.794 225.212C392.327 225.339 392.764 225.466 393.103 225.592C393.443 225.719 393.733 225.919 393.973 226.192C394.22 226.465 394.343 226.835 394.343 227.302C394.343 227.702 394.23 228.068 394.003 228.402C393.783 228.728 393.45 228.988 393.003 229.182C392.557 229.375 392.014 229.472 391.374 229.472ZM324.629 233.353L322.339 240.352H320.6L319.06 235.613L317.47 240.352H315.741L313.441 233.353H315.121L316.7 238.272L318.35 233.353H319.85L321.449 238.312L323.079 233.353H324.629ZM325.833 233.353H327.453V240.352H325.833V233.353ZM330.863 234.673H328.624V233.353H334.722V234.673H332.483V240.352H330.863V234.673ZM342.313 233.353V240.352H340.693V237.482H337.514V240.352H335.894V233.353H337.514V236.112H340.693V233.353H342.313ZM348.849 234.673H346.61V233.353H352.709V234.673H350.469V240.352H348.849V234.673ZM353.88 233.353H355.5V240.352H353.88V233.353ZM363.829 240.352L363.819 236.152L361.76 239.612H361.03L358.98 236.242V240.352H357.461V233.353H358.8L361.42 237.702L363.999 233.353H365.329L365.349 240.352H363.829ZM372.728 239.052V240.352H367.309V233.353H372.598V234.653H368.919V236.172H372.168V237.432H368.919V239.052H372.728ZM378.776 240.352L377.426 238.402H377.346H375.937V240.352H374.317V233.353H377.346C377.966 233.353 378.503 233.456 378.956 233.663C379.416 233.87 379.769 234.163 380.016 234.543C380.263 234.923 380.386 235.373 380.386 235.892C380.386 236.412 380.259 236.862 380.006 237.242C379.759 237.615 379.406 237.902 378.946 238.102L380.516 240.352H378.776ZM378.746 235.892C378.746 235.499 378.62 235.199 378.366 234.993C378.113 234.779 377.743 234.673 377.256 234.673H375.937V237.112H377.256C377.743 237.112 378.113 237.006 378.366 236.792C378.62 236.579 378.746 236.279 378.746 235.892Z" fill="#5F5F5F"/>
<path d="M348.698 191.947L354.115 184.112L345.658 188.694C345.24 189.265 344.983 191.21 345.658 191.948C346.334 192.685 348.092 192.313 348.698 191.947Z" stroke="#F8567A" stroke-width="1.24975" stroke-linecap="round" stroke-linejoin="round"/>
<circle cx="347.448" cy="190.776" r="13.9556" stroke="#F8567A" stroke-width="1.24975"/>
<line x1="347.656" y1="179.32" x2="347.656" y2="181.403" stroke="#F8567A" stroke-width="1.24975" stroke-linecap="round"/>
<line x1="359.487" y1="178.745" x2="357.91" y2="180.105" stroke="#F8567A" stroke-width="1.24975" stroke-linecap="round"/>
<line x1="335.561" y1="178.741" x2="337.03" y2="180.217" stroke="#F8567A" stroke-width="1.24975" stroke-linecap="round"/>
<line x1="347.657" y1="174.32" x2="347.657" y2="176.403" stroke="#F8567A" stroke-width="1.24975" stroke-linecap="round"/>
<line x1="347.657" y1="200.148" x2="347.657" y2="202.231" stroke="#F8567A" stroke-width="1.24975" stroke-linecap="round"/>
<line x1="356.821" y1="190.567" x2="358.904" y2="190.567" stroke="#F8567A" stroke-width="1.24975" stroke-linecap="round"/>
<line x1="358.198" y1="175.914" x2="361.923" y2="179.845" stroke="#F8567A" stroke-width="1.24975" stroke-linecap="round"/>
<line x1="332.829" y1="180.227" x2="336.487" y2="176.233" stroke="#F8567A" stroke-width="1.24975" stroke-linecap="round"/>
<line x1="335.993" y1="190.567" x2="338.076" y2="190.567" stroke="#F8567A" stroke-width="1.24975" stroke-linecap="round"/>
<rect x="342.658" y="170.988" width="8.74825" height="2.91608" stroke="#F8567A" stroke-width="1.24975" stroke-linejoin="round"/>
<path d="M451.659 229.352L451.649 225.152L449.59 228.612H448.86L446.81 225.242V229.352H445.291V222.353H446.63L449.25 226.702L451.829 222.353H453.159L453.179 229.352H451.659ZM455.14 222.353H456.759V229.352H455.14V222.353ZM465.139 222.353V229.352H463.809L460.32 225.102V229.352H458.72V222.353H460.06L463.539 226.602V222.353H465.139ZM467.095 222.353H468.714V229.352H467.095V222.353ZM477.044 229.352L477.034 225.152L474.974 228.612H474.244L472.195 225.242V229.352H470.675V222.353H472.015L474.634 226.702L477.214 222.353H478.544L478.564 229.352H477.044ZM480.524 222.353H482.144V229.352H480.524V222.353ZM489.773 228.032V229.352H483.655V228.302L487.494 223.673H483.735V222.353H489.623V223.403L485.794 228.032H489.773ZM496.531 228.052V229.352H491.112V222.353H496.401V223.653H492.722V225.172H495.971V226.432H492.722V228.052H496.531ZM500.419 229.472C499.866 229.472 499.329 229.398 498.809 229.252C498.296 229.098 497.883 228.902 497.57 228.662L498.12 227.442C498.42 227.662 498.776 227.839 499.189 227.972C499.603 228.105 500.016 228.172 500.429 228.172C500.889 228.172 501.229 228.105 501.449 227.972C501.669 227.832 501.779 227.649 501.779 227.422C501.779 227.255 501.712 227.119 501.579 227.012C501.452 226.899 501.286 226.809 501.079 226.742C500.879 226.675 500.606 226.602 500.259 226.522C499.726 226.395 499.289 226.269 498.949 226.142C498.61 226.016 498.316 225.812 498.07 225.532C497.83 225.252 497.71 224.879 497.71 224.413C497.71 224.006 497.82 223.639 498.04 223.313C498.26 222.979 498.59 222.716 499.029 222.523C499.476 222.33 500.019 222.233 500.659 222.233C501.106 222.233 501.542 222.286 501.969 222.393C502.395 222.5 502.769 222.653 503.089 222.853L502.589 224.083C501.942 223.716 501.296 223.533 500.649 223.533C500.196 223.533 499.859 223.606 499.639 223.753C499.426 223.899 499.319 224.093 499.319 224.333C499.319 224.573 499.443 224.752 499.689 224.872C499.943 224.986 500.326 225.099 500.839 225.212C501.372 225.339 501.809 225.466 502.149 225.592C502.489 225.719 502.779 225.919 503.019 226.192C503.265 226.465 503.389 226.835 503.389 227.302C503.389 227.702 503.275 228.068 503.049 228.402C502.829 228.728 502.495 228.988 502.049 229.182C501.602 229.375 501.059 229.472 500.419 229.472ZM514.345 222.353V229.352H512.726V226.482H509.546V229.352H507.927V222.353H509.546V225.112H512.726V222.353H514.345ZM521.72 228.052V229.352H516.301V222.353H521.59V223.653H517.911V225.172H521.16V226.432H517.911V228.052H521.72ZM527.918 227.852H524.668L524.049 229.352H522.389L525.508 222.353H527.108L530.237 229.352H528.538L527.918 227.852ZM527.408 226.622L526.298 223.943L525.188 226.622H527.408ZM532.362 223.673H530.122V222.353H536.221V223.673H533.981V229.352H532.362V223.673ZM466.92 233.353H470.099C470.859 233.353 471.529 233.5 472.109 233.793C472.695 234.079 473.148 234.486 473.468 235.013C473.795 235.539 473.958 236.152 473.958 236.852C473.958 237.552 473.795 238.165 473.468 238.692C473.148 239.218 472.695 239.628 472.109 239.922C471.529 240.208 470.859 240.352 470.099 240.352H466.92V233.353ZM470.019 239.022C470.719 239.022 471.275 238.829 471.689 238.442C472.109 238.049 472.319 237.519 472.319 236.852C472.319 236.186 472.109 235.659 471.689 235.273C471.275 234.879 470.719 234.683 470.019 234.683H468.539V239.022H470.019ZM479.991 238.852H476.742L476.122 240.352H474.462L477.582 233.353H479.181L482.311 240.352H480.611L479.991 238.852ZM479.481 237.622L478.371 234.943L477.262 237.622H479.481ZM489.705 240.352L489.695 236.152L487.636 239.612H486.906L484.856 236.242V240.352H483.337V233.353H484.676L487.296 237.702L489.875 233.353H491.205L491.225 240.352H489.705ZM497.795 238.852H494.545L493.925 240.352H492.266L495.385 233.353H496.985L500.114 240.352H498.414L497.795 238.852ZM497.285 237.622L496.175 234.943L495.065 237.622H497.285ZM505.772 236.742H507.251V239.582C506.871 239.868 506.431 240.088 505.931 240.242C505.432 240.395 504.928 240.472 504.422 240.472C503.695 240.472 503.042 240.318 502.462 240.012C501.882 239.698 501.426 239.268 501.092 238.722C500.766 238.169 500.603 237.545 500.603 236.852C500.603 236.159 500.766 235.539 501.092 234.993C501.426 234.439 501.886 234.009 502.472 233.703C503.059 233.39 503.719 233.233 504.452 233.233C505.065 233.233 505.622 233.336 506.121 233.543C506.621 233.75 507.041 234.049 507.381 234.443L506.341 235.403C505.842 234.876 505.238 234.613 504.532 234.613C504.085 234.613 503.689 234.706 503.342 234.893C502.995 235.079 502.725 235.343 502.532 235.682C502.339 236.022 502.242 236.412 502.242 236.852C502.242 237.286 502.339 237.672 502.532 238.012C502.725 238.352 502.992 238.619 503.332 238.812C503.679 238.998 504.072 239.092 504.512 239.092C504.978 239.092 505.398 238.992 505.772 238.792V236.742ZM514.475 239.052V240.352H509.056V233.353H514.345V234.653H510.665V236.172H513.915V237.432H510.665V239.052H514.475Z" fill="#5F5F5F"/>
<rect x="142.907" y="0.394531" width="124.975" height="124.975" rx="35.1177" fill="#FFF9F9" fill-opacity="0.8"/>
<path d="M165.623 77.3803H167.243V83.0592H170.752V84.3789H165.623V77.3803ZM175.229 84.4989C174.503 84.4989 173.846 84.3422 173.259 84.029C172.68 83.7157 172.223 83.2858 171.89 82.7392C171.563 82.186 171.4 81.5661 171.4 80.8796C171.4 80.1931 171.563 79.5765 171.89 79.03C172.223 78.4767 172.68 78.0435 173.259 77.7302C173.846 77.417 174.503 77.2603 175.229 77.2603C175.956 77.2603 176.609 77.417 177.189 77.7302C177.769 78.0435 178.225 78.4767 178.558 79.03C178.892 79.5765 179.058 80.1931 179.058 80.8796C179.058 81.5661 178.892 82.186 178.558 82.7392C178.225 83.2858 177.769 83.7157 177.189 84.029C176.609 84.3422 175.956 84.4989 175.229 84.4989ZM175.229 83.1192C175.642 83.1192 176.016 83.0258 176.349 82.8392C176.682 82.6459 176.942 82.3793 177.129 82.0394C177.322 81.6994 177.419 81.3129 177.419 80.8796C177.419 80.4464 177.322 80.0598 177.129 79.7198C176.942 79.3799 176.682 79.1166 176.349 78.93C176.016 78.7367 175.642 78.6401 175.229 78.6401C174.816 78.6401 174.443 78.7367 174.109 78.93C173.776 79.1166 173.513 79.3799 173.319 79.7198C173.133 80.0598 173.039 80.4464 173.039 80.8796C173.039 81.3129 173.133 81.6994 173.319 82.0394C173.513 82.3793 173.776 82.6459 174.109 82.8392C174.443 83.0258 174.816 83.1192 175.229 83.1192ZM186.994 77.3803V84.3789H185.664L182.175 80.1298V84.3789H180.575V77.3803H181.915L185.395 81.6295V77.3803H186.994ZM193.679 80.7696H195.159V83.6091C194.779 83.8957 194.339 84.1156 193.839 84.2689C193.339 84.4222 192.836 84.4989 192.329 84.4989C191.603 84.4989 190.95 84.3456 190.37 84.039C189.79 83.7257 189.333 83.2958 189 82.7492C188.673 82.196 188.51 81.5728 188.51 80.8796C188.51 80.1864 188.673 79.5665 189 79.02C189.333 78.4668 189.793 78.0368 190.38 77.7302C190.966 77.417 191.626 77.2603 192.359 77.2603C192.973 77.2603 193.529 77.3636 194.029 77.5703C194.529 77.7769 194.949 78.0768 195.289 78.4701L194.249 79.4299C193.749 78.9033 193.146 78.6401 192.439 78.6401C191.993 78.6401 191.596 78.7334 191.25 78.92C190.903 79.1066 190.633 79.3699 190.44 79.7098C190.246 80.0498 190.15 80.4397 190.15 80.8796C190.15 81.3129 190.246 81.6994 190.44 82.0394C190.633 82.3793 190.9 82.6459 191.24 82.8392C191.586 83.0258 191.979 83.1192 192.419 83.1192C192.886 83.1192 193.306 83.0192 193.679 82.8192V80.7696ZM196.653 80.9396H199.483V82.1893H196.653V80.9396ZM201.12 77.3803H202.74V83.0592H206.249V84.3789H201.12V77.3803ZM212.121 82.8792H208.872L208.252 84.3789H206.592L209.712 77.3803H211.312L214.441 84.3789H212.741L212.121 82.8792ZM211.611 81.6495L210.502 78.97L209.392 81.6495H211.611ZM217.767 84.4989C217.213 84.4989 216.677 84.4256 216.157 84.2789C215.644 84.1256 215.23 83.929 214.917 83.689L215.467 82.4693C215.767 82.6892 216.124 82.8659 216.537 82.9992C216.95 83.1325 217.363 83.1991 217.777 83.1991C218.236 83.1991 218.576 83.1325 218.796 82.9992C219.016 82.8592 219.126 82.6759 219.126 82.4493C219.126 82.2827 219.06 82.146 218.926 82.0394C218.8 81.9261 218.633 81.8361 218.426 81.7694C218.226 81.7028 217.953 81.6295 217.607 81.5495C217.073 81.4228 216.637 81.2962 216.297 81.1695C215.957 81.0429 215.664 80.8396 215.417 80.5597C215.177 80.2797 215.057 79.9065 215.057 79.4399C215.057 79.0333 215.167 78.6667 215.387 78.3401C215.607 78.0068 215.937 77.7436 216.377 77.5503C216.823 77.357 217.367 77.2603 218.006 77.2603C218.453 77.2603 218.89 77.3136 219.316 77.4203C219.743 77.5269 220.116 77.6802 220.436 77.8802L219.936 79.11C219.29 78.7434 218.643 78.5601 217.996 78.5601C217.543 78.5601 217.207 78.6334 216.987 78.78C216.773 78.9267 216.667 79.12 216.667 79.3599C216.667 79.5999 216.79 79.7798 217.037 79.8998C217.29 80.0131 217.673 80.1264 218.186 80.2397C218.72 80.3664 219.156 80.493 219.496 80.6197C219.836 80.7463 220.126 80.9463 220.366 81.2195C220.613 81.4928 220.736 81.8627 220.736 82.3293C220.736 82.7292 220.623 83.0958 220.396 83.4291C220.176 83.7557 219.843 84.0156 219.396 84.2089C218.95 84.4022 218.406 84.4989 217.767 84.4989ZM223.495 78.7H221.255V77.3803H227.354V78.7H225.114V84.3789H223.495V78.7ZM228.525 77.3803H230.145V84.3789H228.525V77.3803ZM238.525 77.3803V84.3789H237.195L233.706 80.1298V84.3789H232.106V77.3803H233.446L236.925 81.6295V77.3803H238.525ZM245.209 80.7696H246.689V83.6091C246.309 83.8957 245.869 84.1156 245.369 84.2689C244.869 84.4222 244.366 84.4989 243.86 84.4989C243.133 84.4989 242.48 84.3456 241.9 84.039C241.32 83.7257 240.864 83.2958 240.53 82.7492C240.204 82.196 240.04 81.5728 240.04 80.8796C240.04 80.1864 240.204 79.5665 240.53 79.02C240.864 78.4668 241.323 78.0368 241.91 77.7302C242.497 77.417 243.156 77.2603 243.89 77.2603C244.503 77.2603 245.059 77.3636 245.559 77.5703C246.059 77.7769 246.479 78.0768 246.819 78.4701L245.779 79.4299C245.279 78.9033 244.676 78.6401 243.97 78.6401C243.523 78.6401 243.126 78.7334 242.78 78.92C242.433 79.1066 242.163 79.3699 241.97 79.7098C241.777 80.0498 241.68 80.4397 241.68 80.8796C241.68 81.3129 241.777 81.6994 241.97 82.0394C242.163 82.3793 242.43 82.6459 242.77 82.8392C243.116 83.0258 243.51 83.1192 243.95 83.1192C244.416 83.1192 244.836 83.0192 245.209 82.8192V80.7696ZM192.37 95.4989C191.657 95.4989 191.01 95.3456 190.43 95.039C189.857 94.7257 189.404 94.2958 189.07 93.7492C188.744 93.196 188.581 92.5728 188.581 91.8796C188.581 91.1864 188.744 90.5665 189.07 90.02C189.404 89.4668 189.857 89.0368 190.43 88.7302C191.01 88.417 191.66 88.2603 192.38 88.2603C192.986 88.2603 193.533 88.367 194.019 88.5803C194.513 88.7936 194.926 89.1002 195.259 89.5001L194.219 90.4599C193.746 89.9133 193.16 89.6401 192.46 89.6401C192.027 89.6401 191.64 89.7367 191.3 89.93C190.96 90.1166 190.693 90.3799 190.5 90.7198C190.314 91.0598 190.22 91.4464 190.22 91.8796C190.22 92.3129 190.314 92.6994 190.5 93.0394C190.693 93.3793 190.96 93.6459 191.3 93.8392C191.64 94.0258 192.027 94.1192 192.46 94.1192C193.16 94.1192 193.746 93.8425 194.219 93.2893L195.259 94.2491C194.926 94.6557 194.513 94.9657 194.019 95.1789C193.526 95.3922 192.976 95.4989 192.37 95.4989ZM199.704 95.4989C198.704 95.4989 197.924 95.2223 197.364 94.669C196.811 94.1158 196.534 93.326 196.534 92.2995V88.3803H198.154V92.2395C198.154 93.4926 198.674 94.1192 199.714 94.1192C200.22 94.1192 200.607 93.9692 200.874 93.6692C201.14 93.3626 201.273 92.8861 201.273 92.2395V88.3803H202.873V92.2995C202.873 93.326 202.593 94.1158 202.033 94.669C201.48 95.2223 200.704 95.4989 199.704 95.4989ZM209.233 95.3789L207.883 93.4293H207.803H206.393V95.3789H204.774V88.3803H207.803C208.423 88.3803 208.959 88.4836 209.413 88.6902C209.873 88.8969 210.226 89.1901 210.472 89.5701C210.719 89.95 210.842 90.3999 210.842 90.9198C210.842 91.4397 210.716 91.8896 210.462 92.2695C210.216 92.6428 209.863 92.9294 209.403 93.1294L210.972 95.3789H209.233ZM209.203 90.9198C209.203 90.5265 209.076 90.2266 208.823 90.02C208.57 89.8067 208.2 89.7 207.713 89.7H206.393V92.1396H207.713C208.2 92.1396 208.57 92.0329 208.823 91.8196C209.076 91.6063 209.203 91.3064 209.203 90.9198ZM212.426 88.3803H214.045V94.0592H217.555V95.3789H212.426V88.3803ZM221.02 95.4989C220.467 95.4989 219.93 95.4256 219.41 95.2789C218.897 95.1256 218.484 94.929 218.171 94.689L218.72 93.4693C219.02 93.6892 219.377 93.8659 219.79 93.9992C220.203 94.1325 220.617 94.1991 221.03 94.1991C221.49 94.1991 221.83 94.1325 222.05 93.9992C222.27 93.8592 222.38 93.6759 222.38 93.4493C222.38 93.2827 222.313 93.146 222.18 93.0394C222.053 92.9261 221.886 92.8361 221.68 92.7694C221.48 92.7028 221.207 92.6295 220.86 92.5495C220.327 92.4228 219.89 92.2962 219.55 92.1695C219.21 92.0429 218.917 91.8396 218.67 91.5597C218.43 91.2797 218.31 90.9065 218.31 90.4399C218.31 90.0333 218.42 89.6667 218.64 89.3401C218.86 89.0068 219.19 88.7436 219.63 88.5503C220.077 88.357 220.62 88.2603 221.26 88.2603C221.706 88.2603 222.143 88.3136 222.57 88.4203C222.996 88.5269 223.369 88.6802 223.689 88.8802L223.19 90.11C222.543 89.7434 221.896 89.5601 221.25 89.5601C220.797 89.5601 220.46 89.6334 220.24 89.78C220.027 89.9267 219.92 90.12 219.92 90.3599C219.92 90.5999 220.043 90.7798 220.29 90.8998C220.543 91.0131 220.927 91.1264 221.44 91.2397C221.973 91.3664 222.41 91.493 222.75 91.6197C223.09 91.7463 223.379 91.9463 223.619 92.2195C223.866 92.4928 223.989 92.8627 223.989 93.3293C223.989 93.7292 223.876 94.0958 223.649 94.4291C223.429 94.7557 223.096 95.0156 222.65 95.2089C222.203 95.4022 221.66 95.4989 221.02 95.4989Z" fill="#5F5F5F"/>
<path d="M215.392 63.733C215.392 63.733 217.892 62.0667 218.309 61.2335C219.876 58.0993 216.09 56.7958 214.976 54.5682C213.673 51.963 218.725 50.8189 218.725 47.9028C218.725 44.9867 215.392 43.737 213.726 41.6541C212.06 39.5712 214.559 37.0717 212.893 34.9887C211.227 32.9058 208.311 32.9058 208.311 32.9058V25.4073C208.311 25.4073 212.06 24.9905 216.226 27.9068C220.391 30.8231 218.725 36.6549 219.975 38.3214C221.225 39.9879 225.513 40.5869 226.224 43.737C226.779 46.2007 224.335 47.47 224.557 49.9857C224.725 51.8825 226.224 54.5682 226.224 54.5682" stroke="#F8567A" stroke-width="1.24975" stroke-linecap="round" stroke-linejoin="round"/>
<path d="M199.645 63.733C199.645 63.733 197.145 62.0667 196.729 61.2335C195.161 58.0993 198.947 56.7958 200.061 54.5682C201.364 51.963 196.312 50.8189 196.312 47.9028C196.312 44.9867 199.645 43.737 201.311 41.6541C202.977 39.5712 200.478 37.0717 202.144 34.9887C203.81 32.9058 206.727 32.9058 206.727 32.9058V25.4073C206.727 25.4073 202.977 24.9905 198.811 27.9068C194.646 30.8231 196.312 36.6549 195.062 38.3214C193.812 39.9879 189.524 40.5869 188.813 43.737C188.258 46.2007 190.702 47.47 190.48 49.9857C190.312 51.8825 188.813 54.5682 188.813 54.5682" stroke="#F8567A" stroke-width="1.24975" stroke-linecap="round" stroke-linejoin="round"/>
<path d="M220.392 43.7392L220.046 44.2591L220.392 43.7392ZM221.5 59.2899C221.346 59.5986 221.471 59.9739 221.779 60.1283C222.088 60.2826 222.463 60.1575 222.618 59.8488L221.5 59.2899ZM208.249 29.364C209.514 29.4904 211.757 30.1354 214.16 32.1383L214.96 31.1782C212.365 29.0153 209.886 28.2717 208.374 28.1204L208.249 29.364ZM214.16 32.1383C215.356 33.1349 216.001 33.9867 216.368 34.9962C216.745 36.0309 216.851 37.2891 216.851 39.1568H218.101C218.101 37.2753 218 35.8256 217.543 34.5691C217.077 33.2874 216.264 32.2646 214.96 31.1782L214.16 32.1383ZM216.851 39.1568C216.851 40.7367 217.156 41.7503 217.788 42.5264C218.094 42.9012 218.455 43.1941 218.833 43.4597C219.192 43.7124 219.638 43.9873 220.046 44.2591L220.739 43.2193C220.264 42.9028 219.905 42.6857 219.552 42.4375C219.217 42.2023 218.96 41.9854 218.757 41.7367C218.373 41.2656 218.101 40.5763 218.101 39.1568H216.851ZM220.046 44.2591C221.248 45.0607 221.751 45.6997 221.944 46.2027C222.129 46.6832 222.071 47.1415 221.883 47.7074L223.068 48.1026C223.296 47.4188 223.447 46.6273 223.111 45.754C222.783 44.9031 222.036 44.0841 220.739 43.2193L220.046 44.2591ZM221.883 47.7074C221.805 47.9415 221.634 48.2491 221.385 48.6486C221.153 49.021 220.847 49.4822 220.583 49.9315C220.314 50.3893 220.052 50.8915 219.888 51.4059C219.724 51.9209 219.644 52.4883 219.786 53.0556L220.999 52.7525C220.932 52.4866 220.957 52.1687 221.079 51.7855C221.201 51.4017 221.409 50.9926 221.66 50.5651C221.917 50.1292 222.183 49.7311 222.446 49.3094C222.692 48.9148 222.938 48.4935 223.068 48.1026L221.883 47.7074ZM219.786 53.0556C220.03 54.029 220.629 54.8505 221.147 55.5242C221.418 55.8764 221.661 56.1801 221.871 56.4823C222.079 56.7822 222.223 57.0378 222.299 57.2675L223.485 56.8723C223.353 56.4771 223.132 56.1078 222.898 55.7698C222.665 55.4341 222.387 55.0869 222.137 54.7622C221.614 54.0819 221.172 53.4454 220.999 52.7525L219.786 53.0556ZM222.299 57.2675C222.438 57.6836 222.354 57.9849 222.192 58.2725C222.103 58.4301 221.993 58.5764 221.867 58.7421C221.756 58.8882 221.601 59.0873 221.5 59.2899L222.618 59.8488C222.655 59.7738 222.726 59.6778 222.862 59.4983C222.984 59.3387 223.143 59.1291 223.28 58.8875C223.568 58.3766 223.763 57.7059 223.485 56.8723L222.299 57.2675Z" fill="#F8567A"/>
<path d="M194.648 43.7392L194.994 44.2591L194.648 43.7392ZM193.54 59.2899C193.694 59.5986 193.569 59.9739 193.261 60.1283C192.952 60.2826 192.577 60.1575 192.422 59.8488L193.54 59.2899ZM206.791 29.364C205.526 29.4904 203.283 30.1354 200.88 32.1383L200.08 31.1782C202.675 29.0153 205.154 28.2717 206.666 28.1204L206.791 29.364ZM200.88 32.1383C199.684 33.1349 199.039 33.9867 198.672 34.9962C198.295 36.0309 198.189 37.2891 198.189 39.1568H196.939C196.939 37.2753 197.04 35.8256 197.497 34.5691C197.963 33.2874 198.776 32.2646 200.08 31.1782L200.88 32.1383ZM198.189 39.1568C198.189 40.7367 197.885 41.7503 197.252 42.5264C196.946 42.9012 196.585 43.1941 196.207 43.4597C195.848 43.7124 195.402 43.9873 194.994 44.2591L194.301 43.2193C194.776 42.9028 195.135 42.6857 195.488 42.4375C195.823 42.2023 196.08 41.9854 196.283 41.7367C196.667 41.2656 196.939 40.5763 196.939 39.1568H198.189ZM194.994 44.2591C193.792 45.0607 193.289 45.6997 193.096 46.2027C192.911 46.6832 192.969 47.1415 193.157 47.7074L191.972 48.1026C191.744 47.4188 191.593 46.6273 191.929 45.754C192.257 44.9031 193.004 44.0841 194.301 43.2193L194.994 44.2591ZM193.157 47.7074C193.236 47.9415 193.406 48.2491 193.655 48.6486C193.887 49.021 194.193 49.4822 194.457 49.9315C194.726 50.3893 194.988 50.8915 195.152 51.4059C195.316 51.9209 195.396 52.4883 195.254 53.0556L194.041 52.7525C194.108 52.4866 194.083 52.1687 193.961 51.7855C193.839 51.4017 193.631 50.9926 193.38 50.5651C193.124 50.1292 192.857 49.7311 192.594 49.3094C192.348 48.9148 192.102 48.4935 191.972 48.1026L193.157 47.7074ZM195.254 53.0556C195.01 54.029 194.411 54.8505 193.893 55.5242C193.622 55.8764 193.379 56.1801 193.169 56.4823C192.961 56.7822 192.817 57.0378 192.741 57.2675L191.555 56.8723C191.687 56.4771 191.908 56.1078 192.142 55.7698C192.375 55.4341 192.653 55.0869 192.903 54.7622C193.426 54.0819 193.868 53.4454 194.041 52.7525L195.254 53.0556ZM192.741 57.2675C192.602 57.6836 192.686 57.9849 192.848 58.2725C192.937 58.4301 193.047 58.5764 193.173 58.7421C193.284 58.8882 193.439 59.0873 193.54 59.2899L192.422 59.8488C192.385 59.7738 192.314 59.6778 192.178 59.4983C192.056 59.3387 191.897 59.1291 191.76 58.8875C191.472 58.3766 191.277 57.7059 191.555 56.8723L192.741 57.2675Z" fill="#F8567A"/>
<path d="M200.397 46.2383C200.397 46.2383 203.453 53.8584 207.479 53.7368C211.396 53.6185 214.145 46.2383 214.145 46.2383" stroke="#F8567A" stroke-width="1.24975" stroke-linecap="round"/>
<rect x="148.323" y="5.81111" width="114.144" height="114.144" rx="34.7011" stroke="#F8567A" stroke-width="0.833167"/>
</svg>
