<svg width="150" height="30" viewBox="0 0 150 30" fill="none" xmlns="http://www.w3.org/2000/svg">
<path d="M13.5555 2.47997C14.2003 1.37292 15.7997 1.37293 16.4445 2.47997L19.4785 7.68909C19.7147 8.09462 20.1105 8.38218 20.5692 8.48151L26.4609 9.75734C27.713 10.0285 28.2072 11.5495 27.3536 12.5049L23.337 17.0001C23.0243 17.3501 22.8731 17.8153 22.9204 18.2823L23.5277 24.2799C23.6567 25.5545 22.3629 26.4946 21.1905 25.9779L15.6741 23.547C15.2446 23.3578 14.7554 23.3578 14.3259 23.547L8.8095 25.9779C7.63714 26.4946 6.34327 25.5545 6.47233 24.2799L7.07958 18.2823C7.12686 17.8153 6.97568 17.3501 6.66298 17.0001L2.64639 12.5049C1.79277 11.5495 2.28699 10.0285 3.53911 9.75734L9.43084 8.48151C9.88951 8.38218 10.2853 8.09462 10.5215 7.68909L13.5555 2.47997Z" fill="url(#paint0_linear_5_1094)"/>
<path d="M43.5555 2.47997C44.2003 1.37292 45.7997 1.37293 46.4445 2.47997L49.4785 7.68909C49.7147 8.09462 50.1105 8.38218 50.5692 8.48151L56.4609 9.75734C57.713 10.0285 58.2072 11.5495 57.3536 12.5049L53.337 17.0001C53.0243 17.3501 52.8731 17.8153 52.9204 18.2823L53.5277 24.2799C53.6567 25.5545 52.3629 26.4946 51.1905 25.9779L45.6741 23.547C45.2446 23.3578 44.7554 23.3578 44.3259 23.547L38.8095 25.9779C37.6371 26.4946 36.3433 25.5545 36.4723 24.2799L37.0796 18.2823C37.1269 17.8153 36.9757 17.3501 36.663 17.0001L32.6464 12.5049C31.7928 11.5495 32.287 10.0285 33.5391 9.75734L39.4308 8.48151C39.8895 8.38218 40.2853 8.09462 40.5215 7.68909L43.5555 2.47997Z" fill="url(#paint1_linear_5_1094)"/>
<path d="M73.5555 2.47997C74.2003 1.37292 75.7997 1.37293 76.4445 2.47997L79.4785 7.68909C79.7147 8.09462 80.1105 8.38218 80.5692 8.48151L86.4609 9.75734C87.713 10.0285 88.2072 11.5495 87.3536 12.5049L83.337 17.0001C83.0243 17.3501 82.8731 17.8153 82.9204 18.2823L83.5277 24.2799C83.6567 25.5545 82.3629 26.4946 81.1905 25.9779L75.6741 23.547C75.2446 23.3578 74.7554 23.3578 74.3259 23.547L68.8095 25.9779C67.6371 26.4946 66.3433 25.5545 66.4723 24.2799L67.0796 18.2823C67.1269 17.8153 66.9757 17.3501 66.663 17.0001L62.6464 12.5049C61.7928 11.5495 62.287 10.0285 63.5391 9.75734L69.4308 8.48151C69.8895 8.38218 70.2853 8.09462 70.5215 7.68909L73.5555 2.47997Z" fill="url(#paint2_linear_5_1094)"/>
<path d="M103.556 2.47997C104.2 1.37292 105.8 1.37293 106.444 2.47997L109.478 7.68909C109.715 8.09462 110.11 8.38218 110.569 8.48151L116.461 9.75734C117.713 10.0285 118.207 11.5495 117.354 12.5049L113.337 17.0001C113.024 17.3501 112.873 17.8153 112.92 18.2823L113.528 24.2799C113.657 25.5545 112.363 26.4946 111.19 25.9779L105.674 23.547C105.245 23.3578 104.755 23.3578 104.326 23.547L98.8095 25.9779C97.6371 26.4946 96.3433 25.5545 96.4723 24.2799L97.0796 18.2823C97.1269 17.8153 96.9757 17.3501 96.663 17.0001L92.6464 12.5049C91.7928 11.5495 92.287 10.0285 93.5391 9.75734L99.4308 8.48151C99.8895 8.38218 100.285 8.09462 100.522 7.68909L103.556 2.47997Z" fill="url(#paint3_linear_5_1094)"/>
<path d="M133.556 2.47997C134.2 1.37292 135.8 1.37293 136.444 2.47997L139.478 7.68909C139.715 8.09462 140.11 8.38218 140.569 8.48151L146.461 9.75734C147.713 10.0285 148.207 11.5495 147.354 12.5049L143.337 17.0001C143.024 17.3501 142.873 17.8153 142.92 18.2823L143.528 24.2799C143.657 25.5545 142.363 26.4946 141.19 25.9779L135.674 23.547C135.245 23.3578 134.755 23.3578 134.326 23.547L128.809 25.9779C127.637 26.4946 126.343 25.5545 126.472 24.2799L127.08 18.2823C127.127 17.8153 126.976 17.3501 126.663 17.0001L122.646 12.5049C121.793 11.5495 122.287 10.0285 123.539 9.75734L129.431 8.48151C129.89 8.38218 130.285 8.09462 130.522 7.68909L133.556 2.47997Z" fill="url(#paint4_linear_5_1094)"/>
<defs>
<linearGradient id="paint0_linear_5_1094" x1="-6.48649" y1="-6.48649" x2="30" y2="30" gradientUnits="userSpaceOnUse">
<stop offset="0.215892" stop-color="#F6B07E"/>
<stop offset="0.574603" stop-color="#FBD2A4"/>
<stop offset="0.868254" stop-color="#FFEF5D"/>
</linearGradient>
<linearGradient id="paint1_linear_5_1094" x1="23.5135" y1="-6.48649" x2="60" y2="30" gradientUnits="userSpaceOnUse">
<stop offset="0.215892" stop-color="#F6B07E"/>
<stop offset="0.574603" stop-color="#FBD2A4"/>
<stop offset="0.868254" stop-color="#FFEF5D"/>
</linearGradient>
<linearGradient id="paint2_linear_5_1094" x1="53.5135" y1="-6.48649" x2="90" y2="30" gradientUnits="userSpaceOnUse">
<stop offset="0.215892" stop-color="#F6B07E"/>
<stop offset="0.574603" stop-color="#FBD2A4"/>
<stop offset="0.868254" stop-color="#FFEF5D"/>
</linearGradient>
<linearGradient id="paint3_linear_5_1094" x1="83.5135" y1="-6.48649" x2="120" y2="30" gradientUnits="userSpaceOnUse">
<stop offset="0.215892" stop-color="#F6B07E"/>
<stop offset="0.574603" stop-color="#FBD2A4"/>
<stop offset="0.868254" stop-color="#FFEF5D"/>
</linearGradient>
<linearGradient id="paint4_linear_5_1094" x1="113.514" y1="-6.48649" x2="150" y2="30" gradientUnits="userSpaceOnUse">
<stop offset="0.215892" stop-color="#F6B07E"/>
<stop offset="0.574603" stop-color="#FBD2A4"/>
<stop offset="0.868254" stop-color="#FFEF5D"/>
</linearGradient>
</defs>
</svg>
